<svg xmlns="http://www.w3.org/2000/svg" xmlns:xlink="http://www.w3.org/1999/xlink" width="335" height="252.144" viewBox="0 0 335 252.144"><defs><style>.a,.w{fill:#0edeff;}.a,.f{opacity:0.1;}.b{fill:#3a3768;}.c{fill:#d48a9b;}.d{opacity:0.05;}.e{fill:#efc6cd;}.g{fill:#fff;}.h{fill:#d3dae1;}.i{fill:url(#a);}.j{fill:#585b8a;}.k{opacity:0.2;}.l{fill:#636992;}.m{fill:#ffd6d6;}.n{fill:#dce6f2;}.o{fill:#565988;}.p{fill:#505484;}.q{fill:#575988;}.r{fill:#ffc4c4;}.s{fill:#575989;}.t{fill:#353045;}.u{fill:#f0f3f7;}.v{fill:#663d5c;}.x{opacity:0.3;}.y{opacity:0.15;}.z{fill:#ffd037;}.aa{fill:#65617d;}.ab{fill:#9d9cb5;}.ac{fill:#4b4770;}.ad{fill:#d4dfec;}</style><linearGradient id="a" x1="0.5" y1="1" x2="0.5" gradientUnits="objectBoundingBox"><stop offset="0" stop-color="gray" stop-opacity="0.251"/><stop offset="0.54" stop-color="gray" stop-opacity="0.122"/><stop offset="1" stop-color="gray" stop-opacity="0.102"/></linearGradient></defs><g transform="translate(-9.279 -2.144)"><path class="a" d="M441.863,113.783c-.06.273-.117.546-.183.816a86.265,86.265,0,0,1-10.5,26.44c-.168.273-.335.546-.506.819a76.385,76.385,0,0,1-11.833,14.5,35.773,35.773,0,0,1-8.5,6.339c-4.559,2.314-9.89,3.253-15.128,4.02-5.441.8-10.958,1.47-16.459,2.191q-2.932.377-5.83.8c-5.315.764-10.591,1.648-15.741,2.82a94.193,94.193,0,0,0-18.367,6q-.7.307-1.381.65c-.455.221-.913.445-1.362.672s-.891.454-1.33.687c-.227.12-.455.239-.679.365s-.446.236-.664.359c-.657.356-1.3.721-1.946,1.089l-.025.015c-.427.242-.847.491-1.264.74-2.382,1.405-4.714,2.872-7.046,4.348l-1.466.921-2.272,1.427c-.442.279-.894.558-1.34.835-.316.2-.632.405-.976.614-1.656,1.013-3.333,2.007-5.055,2.955-.408.227-.818.454-1.232.675a71.069,71.069,0,0,1-10.875,4.762l-.051.018a50.76,50.76,0,0,1-5.776,1.583c-1.128.239-2.259.436-3.4.586a37.558,37.558,0,0,1-9.226.126c-6.025-.678-11.672-2.924-17.694-3.682-12.4-1.534-24.44,3.409-36.1,7.281q-4.3,1.427-8.664,2.673-2.9.833-5.83,1.586a225.283,225.283,0,0,1-36.557,6.226,106.015,106.015,0,0,1-15.53.334c-1.968-.117-3.915-.307-5.826-.614-6.54-.982-12.639-3.041-17.561-6.812a33.459,33.459,0,0,1-9.112-11.353,48.563,48.563,0,0,1-4.711-13.667c-.12-.647-.227-1.3-.316-1.948q-.237-1.669-.354-3.357a46.743,46.743,0,0,1,2.174-17.751c2.085-6.419,5.561-12.58,7.09-19.049q.095-.411.18-.819a27.589,27.589,0,0,0,.464-2.973c.78-7.947-2.212-15.695-4.559-23.467-.082-.27-.164-.543-.243-.816q-.379-1.295-.727-2.587c-2.174-8.217-2.777-17.014-.84-25.216.06-.273.133-.546.2-.816a36.495,36.495,0,0,1,7.147-14.216,56.23,56.23,0,0,1,13.476-11.328q3.719-2.363,7.691-4.415,2.844-1.473,5.826-2.789a117.709,117.709,0,0,1,52.106-9.742c.948.04,1.9.089,2.844.156s1.984.147,2.976.236c11.583,1.092,22.854,3.728,34.045,6.609,3.75.967,7.495,1.958,11.236,2.93,1.665.43,3.327.859,4.992,1.276,8.155,2.047,16.43,3.9,24.81,5.284q2.91.488,5.826.89a171.746,171.746,0,0,0,20.377,1.678q3.978.077,7.959-.068,2.009-.071,4.022-.212c13.855-.948,27.246-4.121,40.658-7.085q2.91-.644,5.83-1.27c2.553-.546,5.106-1.074,7.672-1.562,15.966-3.047,30.2-1.295,45.041,4.992,3.375,1.427,6.746,3.151,8.812,5.83s2.585,5.968,2.97,9.144c.547,4.523.9,9.1,1.04,13.71,0,.27,0,.543.019.816A119.6,119.6,0,0,1,441.863,113.783Z" transform="translate(-101.917 -40.399)"/><path class="a" d="M343.942,141.336H342.9v.819h1.182Zm-11.831,0a.052.052,0,0,0,0,.021c-.028.224-.06.448-.092.675v.123h9.04v-.049l.632-.77Zm-24.227,0V114.9h10.4c-.111-.071-.224-.144-.341-.212l-.152-.1-.2-.117c-.114-.064-.228-.129-.348-.19s-.193-.1-.294-.156l-.069-.037h-9v-1.457l-.243.092-.256.117h-.019l-.054.028-.161.083-.161.083c-.158.083-.316.175-.474.27l-.152.1-.316.2c-.408.264-.809.54-1.223.8-.1.064-.209.129-.316.187-.224.129-.455.252-.692.362a2.687,2.687,0,0,1-.316.132l-.171.064-.158.052h0a7.585,7.585,0,0,1-1.138.288V141.33H286.443c0,.031.022.055.032.086.085.245.171.488.253.733h15.329v28.34h.237l.275.015.5.028.793.092.363.034.4.04h.06l.7.083.149.018.338.046.484.067h0l1.16-.049h0l.158.028a1.126,1.126,0,0,1,.2.031V142.155h24.129v-.123c.032-.227.063-.451.092-.675a.051.051,0,0,1,0-.021Zm36.057,0H342.9v.819h1.182Zm-12.482,0c-.038.273-.073.546-.111.819h10.079l.686-.819Zm-23.576,0V114.9h10.4c-.111-.071-.224-.144-.341-.212l-.152-.1-.2-.117c-.114-.064-.228-.129-.348-.19s-.193-.1-.294-.156l-.069-.037h-9v-1.457l-.243.092-.256.117h-.019l-.054.028-.161.083-.161.083c-.158.083-.316.175-.474.27l-.152.1-.316.2c-.408.264-.809.54-1.223.8-.1.064-.209.129-.316.187-.224.129-.455.252-.692.362a2.683,2.683,0,0,1-.316.132l-.171.064-.158.052h0a7.583,7.583,0,0,1-1.138.288V141.33H286.443c0,.031.022.055.032.086.085.242.174.488.256.733h15.326v28.337h.237l.275.015.5.028.793.1.363.034.4.04h.06l.7.083.149.018.338.046.484.067h0l1.16-.049h0l.158.028a1.126,1.126,0,0,1,.2.031V142.155h23.5c.038-.273.073-.546.111-.819Zm78.872-55.059h65.575c0-.273,0-.546-.019-.816H386.757V53.36q-2.921.614-5.832,1.27V85.461H309.607l-.18-.157.272-.233h0L336.227,61.93q-3.982.147-7.962.068L307.882,79.775V60.325q-2.921-.4-5.828-.89V78.879l-29.8-26c-3.742-.973-7.488-1.964-11.239-2.93l40.53,35.36-.18.157h-74.4v-42.1q-1.489-.135-2.977-.236c-.948-.068-1.9-.117-2.845-.156V85.461H169V52.712q-2.952,1.313-5.828,2.789v29.96H134.852c-.07.27-.142.543-.2.816h28.525v27.8H136.218c.079.273.161.546.243.816h26.714v26.44H140.557q-.085.408-.18.819h22.8v73.927c1.9.285,3.859.485,5.828.614v-74.54h52.123v67.974q2.935-.759,5.832-1.586V142.155h75.1v59.389a50.79,50.79,0,0,0,5.778-1.583l.051-.018V142.155h73.041V170.01q2.908-.414,5.832-.795v-27.06h51.937c.171-.273.338-.546.506-.819H386.757V114.9H449.7c.066-.27.123-.543.183-.816H386.757ZM169,86.277h52.123v27.8H169Zm0,55.059V114.9h52.123v26.44Zm57.955-55.059h75.1v27.8h-75.1Zm0,55.059V114.9h75.1v26.44Zm153.967,0H307.885V114.9h73.041Zm0-27.256H307.885V87.023l1.024-.746h72.017Zm-48.814,27.256a.052.052,0,0,0,0,.021c-.028.224-.06.448-.092.675v.123h9.04v-.049l.632-.77Zm11.831,0H342.9v.819h1.182Zm-36.057,0V114.9h10.4c-.111-.071-.224-.144-.341-.212l-.152-.1-.2-.117c-.114-.064-.228-.129-.348-.19s-.193-.1-.294-.156l-.069-.037h-9v-1.457l-.243.092-.256.117h-.019l-.054.028-.161.083-.161.083c-.158.083-.316.175-.474.27l-.152.1-.316.2c-.408.264-.809.54-1.223.8-.1.064-.209.129-.316.187-.224.129-.455.252-.692.362a2.687,2.687,0,0,1-.316.132l-.171.064-.158.052h0a7.585,7.585,0,0,1-1.138.288V141.33H286.443c0,.031.022.055.032.086.085.245.171.488.253.733h15.329v28.34h.237l.275.015.5.028.793.092.363.034.4.04h.06l.7.083.149.018.338.046.484.067h0l1.16-.049h0l.158.028a1.126,1.126,0,0,1,.2.031V142.155h24.129v-.123c.032-.227.063-.451.092-.675a.051.051,0,0,1,0-.021Z" transform="translate(-109.937 -40.695)"/><path class="a" d="M318.4,117.8h.439a.89.89,0,0,1-.537-.715h0c0-.565.844-1.025,1.875-1.025H333.3c1.031,0,1.872.46,1.872,1.025h0c0,.562-.841,1.025-1.872,1.025h-.439a.881.881,0,0,1,.537.712c0,.482-.614.887-1.433.994h3.777c1.028,0,1.872.46,1.872,1.025s-.844,1.025-1.872,1.025H322.618c-1.028,0-1.872-.463-1.872-1.025,0-.482.614-.884,1.433-.994H318.4c-1.031,0-1.872-.46-1.872-1.025S317.371,117.8,318.4,117.8Z" transform="translate(-233.84 -91.358)"/><path class="a" d="M781.842,149.57h.439a.89.89,0,0,1-.534-.715h0c0-.565.841-1.025,1.872-1.025h13.12c1.031,0,1.875.46,1.875,1.025h0c0,.562-.844,1.022-1.875,1.022H796.3a.89.89,0,0,1,.534.715c0,.482-.614.887-1.433.994h3.777c1.031,0,1.872.46,1.872,1.025s-.841,1.025-1.872,1.025h-13.12c-1.031,0-1.875-.463-1.875-1.025,0-.482.614-.887,1.433-.994h-3.777c-1.028,0-1.872-.46-1.872-1.025S780.814,149.57,781.842,149.57Z" transform="translate(-550.747 -113.38)"/><path class="a" d="M252.765,285.53h.436a.887.887,0,0,1-.534-.715h0c0-.562.844-1.025,1.872-1.025h13.123c1.028,0,1.872.463,1.872,1.025h0c0,.565-.844,1.025-1.872,1.025h-.439a.878.878,0,0,1,.534.712c0,.482-.614.887-1.433.994H270.1c1.031,0,1.875.463,1.875,1.025s-.844,1.025-1.875,1.025H256.993c-1.031,0-1.872-.46-1.872-1.025,0-.479.614-.884,1.433-.994h-3.789c-1.031,0-1.875-.46-1.875-1.025S251.746,285.53,252.765,285.53Z" transform="translate(-188.954 -207.622)"/><ellipse class="a" cx="19.932" cy="65.593" rx="19.932" ry="65.593" transform="translate(186.064 180.512) rotate(-78.45)"/><path class="b" d="M828.56,385.254s3.489-17.125,16.809-15.538c0,0,9.205.632,11.1,6.658v13.32Z" transform="translate(-583.814 -267.111)"/><path class="c" d="M709.837,383.344,591.222,373.51,576,376.683l.951,21.249,1.037.126,1.181,31.908,116.393,20.93,12.372-10.466v-34.59l1.583-.93Z" transform="translate(-389.982 -258.856)"/><path class="d" d="M982.6,405.56l-.319,21.565-12.844,6.026-.159-22.519Z" transform="translate(-662.589 -281.071)"/><path class="d" d="M978.392,478.94l.156,33.936L966.18,523.343l.795-39.328Z" transform="translate(-660.44 -331.936)"/><path class="d" d="M582.8,455.21l118.464,14.455.061-2.743L582.71,454.13Z" transform="translate(-394.633 -314.738)"/><path class="d" d="M979.466,480.186V478.94l-11.737,5.179v2.749Z" transform="translate(-661.514 -331.936)"/><path class="e" d="M575.48,376.683,590.7,373.51l118.615,9.834L696,388.416Z" transform="translate(-389.622 -258.856)"/><path class="f" d="M950.739,407.55l5.821.38-9.647,2.887L942,410.465Z" transform="translate(-643.679 -282.451)"/><path class="g" d="M950.739,406.72l5.821.38-9.647,2.89L942,409.635Z" transform="translate(-643.679 -281.876)"/><path class="h" d="M1022.32,444.5c.23-.1.473.089.718.135.141.028.285,0,.426.028.286.037.568.227.841.132" transform="translate(-715.957 -318.998)"/><path class="h" d="M1021.34,445.066c.227-.1.473.086.718.135.141.025.286,0,.427.025.285.04.568.23.841.135" transform="translate(-715.278 -319.393)"/><path class="h" d="M1019.08,446.206c.23-.1.476.086.721.132.138.028.285,0,.424.028.288.04.571.23.841.132" transform="translate(-713.711 -320.183)"/><path class="f" d="M868.739,398.21l5.821.384-9.647,2.887L860,401.125Z" transform="translate(-588.527 -275.977)"/><path class="g" d="M868.739,397.39l5.821.38-9.647,2.887L860,400.3Z" transform="translate(-588.527 -275.408)"/><path class="h" d="M940.32,435.166c.23-.1.472.086.718.135.141.025.286,0,.427.025.285.04.568.23.841.135" transform="translate(-659.118 -312.531)"/><path class="h" d="M939.34,435.736c.227-.1.472.086.718.132.141.028.285,0,.427.028.285.04.568.23.841.132" transform="translate(-658.439 -312.926)"/><path class="h" d="M937.08,436.867c.23-.1.475.089.721.135.138.028.285,0,.423.028.288.037.571.23.841.132" transform="translate(-656.872 -313.71)"/><path class="f" d="M908.069,402.88l5.824.38-9.647,2.89-4.916-.356Z" transform="translate(-614.102 -279.214)"/><path class="g" d="M908.069,402.06l5.824.38-9.647,2.887-4.916-.356Z" transform="translate(-614.102 -278.645)"/><path class="h" d="M979.65,439.836c.23-.1.476.086.721.132.138.028.282,0,.424.028.285.037.571.23.841.132" transform="translate(-686.38 -315.768)"/><path class="h" d="M978.67,440.4c.23-.1.476.089.721.135.138.028.282,0,.423.028.285.037.571.23.841.132" transform="translate(-685.701 -316.156)"/><path class="h" d="M976.42,441.536c.227-.1.473.086.718.135.141.024.285,0,.427.024.286.04.568.23.841.135" transform="translate(-684.141 -316.946)"/><ellipse class="a" cx="62.129" cy="12.789" rx="62.129" ry="12.789" transform="translate(94.529 217.295)"/><path class="i" d="M506.26,292.973a41.624,41.624,0,0,0-3.286-11.381l.2-1.964s.043-.982-.021-2.455a11.164,11.164,0,0,1,.359-2.725c.537-1.7-.672-3.8-.807-3.989s.067-3.928-1.141-5.759-9.26-5.238-9.26-5.238-.433-.905-1.043-1.964l.055-.107a11.539,11.539,0,0,0-1.841-2.482c-.494-.528-.97-.828-1.353-.681a11.057,11.057,0,0,1-.356-1.556c.08.021.163.043.242.058a2.5,2.5,0,0,0,1.013.025,3.009,3.009,0,0,0,1.663-1.473c2.08-3.16,3.872-6.628,4.237-10.368a6.593,6.593,0,0,0-.107-2.289,7.723,7.723,0,0,0-.718-1.672,13.44,13.44,0,0,0-2.025-2.986,11.536,11.536,0,0,0-5.44-2.979,18.834,18.834,0,0,0-7.027-.525c-.614.071-1.227.172-1.841.212a19.128,19.128,0,0,1-2.335-.04l-4.017-.233-.018-.061-.669-.04a1.693,1.693,0,0,0,.328,1.639,2.8,2.8,0,0,1,.678,1.583,3.236,3.236,0,0,1-.776,1.534,1.476,1.476,0,0,0-.249,1.6.921.921,0,0,0,.163.178,2.023,2.023,0,0,0,1.476.393h.092a9.993,9.993,0,0,0-2.034,6.051,10.175,10.175,0,0,0,5.551,9.015c.058.2.117.405.172.614a18.8,18.8,0,0,1,.645,6.634l-.071.153-.043-.163s-4.731,3.21-6.137,4.059a8.867,8.867,0,0,0-2.884,4.517c-.068.786-2.283,12.633-2.283,12.633a29.047,29.047,0,0,0-1.111,3.658l-2.826,2.482s-5.83.525-7.517.132l.049.325a25.493,25.493,0,0,0-4.529-.614,4.8,4.8,0,0,0-2.455.328l-.058.028-.046.021a9.729,9.729,0,0,0-2.577.724c-.1.04-.187.08-.273.12l.018-.4-6.309-.325-3.222-.654s-1.142-.92-1.813-.785S430.6,285,430.6,285a5.626,5.626,0,0,0-1.037-.644c-.107-.743-.175-1.194-.175-1.194s-2.507-9.948-4.385-15.8c-1.258-3.906-3.068-5.83-4.136-6.668-.476-.828-.789-1.362-.789-1.362a6.1,6.1,0,0,0-1.623-2.375c-.046-.074-.08-.11-.1-.11a.359.359,0,0,0-.181.028,19.519,19.519,0,0,1-.028-8.788,9.7,9.7,0,0,0,3.541-7.475v-.261a9.656,9.656,0,0,0-2.28-6.229l-.1-.117a.815.815,0,0,0,.08-.064,1.645,1.645,0,0,0,.58-1.583,10.85,10.85,0,0,0-.835-1.611,10.444,10.444,0,0,1-.341-1.313,4.05,4.05,0,0,0-.967-1.685l.046.123a5.831,5.831,0,0,0-5.133-1.724c-1.384.221-2.673.865-4.063,1.065-1,.141-2.013.049-3.016.15a7.828,7.828,0,0,0-2.676.773,1.534,1.534,0,0,0-.568.417,2.246,2.246,0,0,0-.282.789c-.341,1.243-1.421,2.129-2.2,3.167a7.411,7.411,0,0,0-1.485,4.093,3.2,3.2,0,0,0,.107,1.12c.068.218.172.423.221.644a4.422,4.422,0,0,1-.371,2.016,3.925,3.925,0,0,0,.218,2.559c1.212,2.712,5.192,3.618,6.02,6.465a7.921,7.921,0,0,0,1.991.614c.055.282.1.568.144.856a.23.23,0,0,0-.052.031,6.1,6.1,0,0,0-1.341,3.068l-.129.1c-.439.362-1.939,1.577-3.3,2.513-1.611,1.114-4.3,4.845-6.174,5.959s-3.424,7.978-3.019,10.472,2.08,9.491,1.408,12.043,1.006,14.2,1.006,14.2a17.156,17.156,0,0,1,3.289.976l-.034.509-.1,1.534s-3.041,11-1.878,19.463-.537,9.337-.537,9.337.356,3.753-.537,5.063-1.074,4.188-1.074,4.188-.089,6.459.089,8.285.267,5.152-.359,5.937-1.789,5.931-1.7,7.5-2.237,5.152-.985,9.776-3.682,4.713-3.682,4.713.629,7.057,1.97,9.076l.2.288c-.034.117-.068.239-.1.371-.506,1.841-1.2,4.747-.718,5.449.715,1.049,1.074.871,1.074.871l.267,4.713s5.37,4.538,9.487,4.366,3.311-4.366,3.311-4.366l-3.507-9.095-.12-.307,3.9-7.364s1.074-3.228,1.341-4.363,1.724-5.158,1.724-5.158,3.682-8.726,3.759-9.776.359-6.717,1.074-7.855,2.685-7.671,2.685-7.671l.049.043a2.587,2.587,0,0,1,.669,2.574,20.573,20.573,0,0,0-.181,5.06,34.428,34.428,0,0,1-.537,4.366c-.359,1.485-.445,13.614.181,16.493a46.7,46.7,0,0,1,.46,8.251c-.42,1.734-.789,3.888-.1,4.142,1.166.439,7.073.35,7.073.35s2.5-.874,5.907,2.182,13.869-.871,13.869-.871,3.222-.874-3.133-3.4c-4.434-1.764-7.3-2.94-9.168-4.2.043-.083.089-.166.129-.255,0,0-2.6-2.455-.448-6.806a18.951,18.951,0,0,0,2.059-8.03l.359-14.664-1.074-19.466-.832-20.429.147-.049c.141,3.756.874,12.7,4.713,10.963,4.833-2.182.715-7.855.715-7.855l-2.169-4.228.647-.221-2.427-7.843a17.689,17.689,0,0,1-.092-4.624,18.311,18.311,0,0,0-.055-2.7c3.179-.555,6.223-1.145,6.769-1.01.644.157,4.25.187,5.667.193-.463.362-.835.721-.835.721l5.772,3.885s1.958-1.071,2.366-2.206a2.546,2.546,0,0,0,1.08-.577c.061,1.341.417,2.792,1.657,2.826a2.147,2.147,0,0,0,.9-.178l9.438-1.869-.81,5.06.565,1c-.285,4.268-.614,8.8-.9,12.786l-.132.871.067.015c-.448,6.137-.807,10.785-.807,10.785a5.656,5.656,0,0,1,2.354-2.366l.061,9.107s.472,14.4.472,16.364.064,6.348.064,6.348,1.009,5.367,1.611,7.134,1.074,9.819,1.074,9.819,1.411,2.225.807,3.068,2.35,2.682,2.35,2.682-1.881,2.553-2.016,4.256c-.015.2.178.405.528.614-.111.089-.224.178-.35.264a6.13,6.13,0,0,1-4.069.822c-5.238-.46-8.929,4.385-5.707,5.367s12.887,1.178,12.887,1.178,2.927-1.826,5.216-1c-.034,1.921.061,3.682.077,3.915l-.028.022a21.286,21.286,0,0,1-6.548,4.2c-3.682,1.243-4.5,6.284.267,6.938s11.746-.786,11.746-.786,3.624-2.682,6.376-3.271,5.1-1.9,4.633-3.47c-.307-1-1.1-3.633-1.629-5.4q-.046-.16-.092-.307c.083-.184.166-.374.242-.571,0,0-1.408-7.33-.267-9.162s.537-20.162.537-20.162-1.948-4.646-.939-7.459-1.611-6.809-1.611-6.809a124.4,124.4,0,0,1,1.053-12.467l.1-.552a25.135,25.135,0,0,0,3.743-1.445s.672-10.083,1.074-12.372c.04-.215.1-.562.163-1.013l.307-1.617h0l.362-1.841h0l1.227-6.275,2.215-2.866,5.707-5.83S506.932,298.8,506.26,292.973Zm-88.013-36L418.2,257a.541.541,0,0,1-.015-.068.274.274,0,0,0,.058.037Zm56.388,7.146-.221.482.807-.8-1.1,1.227.368-.773Zm-5.449,11.261c-.212.562-.439,1.169-.675,1.8l.433-1.292Z" transform="translate(-281.148 -167.619)"/><path class="j" d="M595.668,442.22s-.752,5,1.5,5.069,3.762-3.86,3.762-3.86l-.921-3.139Z" transform="translate(-424.871 -316.102)"/><path class="k" d="M595.668,442.22s-.752,5,1.5,5.069,3.762-3.86,3.762-3.86l-.921-3.139Z" transform="translate(-424.871 -316.102)"/><path class="l" d="M407.107,761.392c-4.013.175-9.248-4.36-9.248-4.36l-.261-4.71s-.347.175-1.046-.871c-.47-.7.206-3.615.7-5.446.239-.9.436-1.534.436-1.534l8.806,2.357.42,1.114,3.418,9.089S411.117,761.217,407.107,761.392Z" transform="translate(-288.518 -526.948)"/><path class="l" d="M503.272,733.517s-10.2,3.924-13.5.871-5.756-2.182-5.756-2.182-5.756.089-6.892-.35c-.669-.255-.307-2.436.111-4.173.282-1.2.589-2.191.589-2.191s10.027-3.4,11.6-1.31a7.522,7.522,0,0,0,1.672,1.6c1.817,1.313,4.655,2.5,9.144,4.336C506.411,732.643,503.272,733.517,503.272,733.517Z" transform="translate(-343.326 -512.414)"/><path class="m" d="M527.628,496.35l2.789,5.581s4.013,5.67-.7,7.849-4.621-12.556-4.621-12.556Z" transform="translate(-376.646 -354.961)"/><path class="n" d="M495.25,338.61s3.053,1.4,4.885,7.238,4.274,15.787,4.274,15.787,1.657,11.249,1.393,14.041a18.1,18.1,0,0,0,.089,4.621l2.353,7.849-4.71,1.657L496.3,362.071Z" transform="translate(-356.15 -245.621)"/><path class="d" d="M495.25,338.61s3.053,1.4,4.885,7.238,4.274,15.787,4.274,15.787,1.657,11.249,1.393,14.041a18.1,18.1,0,0,0,.089,4.621l2.353,7.849-4.71,1.657L496.3,362.071Z" transform="translate(-356.15 -245.621)"/><path class="f" d="M408.411,746.843l.42,1.114-.516.985c-2.007.871-6.978.175-6.978.175s-.92-1.169-2.179-3.093c.239-.9.436-1.534.436-1.534Z" transform="translate(-290.45 -526.962)"/><path class="f" d="M492.437,726.19c-2.544,5.762-11.19,3.624-13.593,2.9-.4-.12-.614-.2-.614-.2s.015-.47.022-1.209c.282-1.2.589-2.191.589-2.191s10.027-3.4,11.6-1.31a7.525,7.525,0,0,0,1.672,1.6A2.976,2.976,0,0,0,492.437,726.19Z" transform="translate(-344.494 -512.414)"/><path class="o" d="M432.656,536.781c-2.093,4.357.439,6.8.439,6.8-2.544,5.759-11.19,3.624-13.593,2.9-.4-.117-.614-.2-.614-.2a53.123,53.123,0,0,0-.436-8.9c-.611-2.878-.525-15-.175-16.48a35.081,35.081,0,0,0,.522-4.363,21.26,21.26,0,0,1,.175-5.057,2.611,2.611,0,0,0-.651-2.571l-.046-.046s-1.918,6.542-2.617,7.671-.957,6.8-1.046,7.849-3.664,9.77-3.664,9.77-1.393,4.01-1.654,5.143-1.31,4.363-1.31,4.363l-4.2,8.113c-2.007.871-6.977.175-6.977.175s-.957-1.227-2.268-3.228-1.918-9.067-1.918-9.067,4.8-.089,3.575-4.71,1.046-8.2.96-9.77,1.046-6.714,1.657-7.5.522-4.1.347-5.931-.086-8.285-.086-8.285a11.077,11.077,0,0,1,1.046-4.185c.871-1.307.525-5.06.525-5.06s1.654-.871.522-9.331,1.841-19.447,1.841-19.447l.1-1.534.16-2.485s24.943-1.571,26.95.347a6.615,6.615,0,0,1,1.273,1.826,18.164,18.164,0,0,1,1.442,4.642l1.046,26.425,1.046,19.447-.35,14.652A19.477,19.477,0,0,1,432.656,536.781Z" transform="translate(-285.654 -330.33)"/><path class="f" d="M482.606,538.42l-2.617,56.685-3.142,5.167c-.4-.117-.614-.2-.614-.2a53.123,53.123,0,0,0-.436-8.9c-.611-2.878-.525-15-.175-16.48a35.089,35.089,0,0,0,.522-4.363,21.263,21.263,0,0,1,.175-5.057,2.611,2.611,0,0,0-.65-2.571l.043-.307Z" transform="translate(-342.601 -384.122)"/><path class="f" d="M406.752,732.268s6.8-2.7,7.849-1.841-8.021,2.178-8.021,2.178Z" transform="translate(-295.54 -517.096)"/><path class="f" d="M502.3,713.5c-.261.089-6.888,2.455-6.278,4.971S502.3,713.5,502.3,713.5Z" transform="translate(-356.729 -505.481)"/><path class="m" d="M449.07,285.741s2.221,5.364,1.046,8.113S462.8,301.31,462.8,301.31s-4.053-10.466-.129-16.354S449.07,285.741,449.07,285.741Z" transform="translate(-324.548 -206.747)"/><path class="p" d="M666.428,775.08c-2.682.589-6.214,3.271-6.214,3.271s-6.8,1.439-11.448.786-3.857-5.692-.261-6.935a20.881,20.881,0,0,0,6.385-4.195c.589-.543.939-.921.939-.921l13.019-2.617s.212.727.506,1.731c.522,1.77,1.292,4.4,1.586,5.4C671.4,773.184,669.11,774.491,666.428,775.08Z" transform="translate(-458.747 -540.811)"/><path class="p" d="M641.57,743.886s-5.5.589-7.784-.718-5.56.786-5.56.786-9.42-.2-12.559-1.178.457-5.83,5.56-5.364a5.861,5.861,0,0,0,3.967-.822,4.179,4.179,0,0,0,1.727-2.59l11.046.654,1.534,3.915Z" transform="translate(-437.492 -519.691)"/><path class="f" d="M663.847,740.355s-12.838-2.1-14.477-3.765A4.179,4.179,0,0,0,651.1,734l11.046.654,1.534,3.915Z" transform="translate(-461.553 -519.691)"/><path class="q" d="M634.52,513.41l.132,19.162s.457,14.391.457,16.354.064,6.342.064,6.342.982,5.364,1.571,7.131,1.046,9.819,1.046,9.819,1.375,2.225.785,3.068,2.289,2.682,2.289,2.682-1.841,2.553-1.961,4.253,14.648,4.115,14.648,4.115l-5.753-59-4.581-14.78Z" transform="translate(-451.321 -366.197)"/><path class="f" d="M634.52,513.41l.132,19.162s.457,14.391.457,16.354.064,6.342.064,6.342.982,5.364,1.571,7.131,1.046,9.819,1.046,9.819,1.375,2.225.785,3.068,2.289,2.682,2.289,2.682-1.841,2.553-1.961,4.253,14.648,4.115,14.648,4.115l-5.753-59-4.581-14.78Z" transform="translate(-451.321 -366.197)"/><path class="f" d="M690.474,766.216c-4.274,10.19-14.44,2.326-14.44,2.326s0-.2-.024-.534c.589-.543.939-.921.939-.921l13.019-2.617S690.18,765.213,690.474,766.216Z" transform="translate(-479.775 -540.811)"/><path class="q" d="M667.907,585.869c-4.188,10.739-14.587,2.682-14.587,2.682s-.328-5.56.328-8.11-.721-10.206-.721-10.206-.786-6.8-1.5-8.37a14.916,14.916,0,0,1-.654-4.971,9.491,9.491,0,0,0-.328-3.8,25.549,25.549,0,0,1-.921-4.971,52.452,52.452,0,0,0-.589-7.913L646.9,530.089l-3.664-20.736,1.145-.2,20.506-3.6s3.86,19.638,2.55,21.651a8.445,8.445,0,0,0-.736,2.654c-.749,4.455-1.028,12.455-1.028,12.455s2.55,3.989,1.571,6.8.921,7.456.921,7.456.589,18.315-.525,20.147S667.907,585.869,667.907,585.869Z" transform="translate(-457.179 -361.345)"/><path class="r" d="M682.724,301.443s-18.576,13.081-14.391,6.539c2.255-3.523,1.841-8.008.957-11.4a26.892,26.892,0,0,0-1.841-5s15.784-6.714,13.691-.7a11.274,11.274,0,0,0-.614,4.369A11.661,11.661,0,0,0,682.724,301.443Z" transform="translate(-473.906 -210.808)"/><path class="r" d="M586.521,426.264s-7.849-2.267-9.156-.043.393,7.106,2.762,7.892,7.806-2.66,7.806-2.66Z" transform="translate(-412.039 -305.673)"/><path class="j" d="M612.092,416l-3.271,3.01s-5.692.522-7.327.129c0,0,1.507,10.074-.654,11.316l13.213-2.682Z" transform="translate(-428.377 -299.265)"/><path class="f" d="M612.092,416l-3.271,3.01s-5.692.522-7.327.129c0,0,1.507,10.074-.654,11.316l13.213-2.682Z" transform="translate(-428.377 -299.265)"/><path class="f" d="M456.27,252.032a9.819,9.819,0,0,1-9.819,9.819c-5.038-2.421-9.819-4.391-9.819-9.819a9.819,9.819,0,1,1,19.622,0Z" transform="translate(-315.978 -178.534)"/><path class="m" d="M456.368,252.1a9.8,9.8,0,1,1-2.221-6.207A9.8,9.8,0,0,1,456.368,252.1Z" transform="translate(-316.075 -178.869)"/><path class="f" d="M455.2,463.624a22.2,22.2,0,0,1-3.041,1.577s-4.971-.721-5.689.129-7.057,1.178-7.057,1.178-9.681-.457-11.12-1.7a5.893,5.893,0,0,0-1.47-.871l.16-2.485s24.943-1.571,26.95.347a6.614,6.614,0,0,1,1.267,1.826Z" transform="translate(-309.179 -330.351)"/><path class="n" d="M443.776,356.074c-.2,1.111-4.253,2.811-4.253,2.811s-4.971-.718-5.689.132-7.057,1.178-7.057,1.178-9.681-.46-11.12-1.7-4.646-1.841-4.646-1.841-1.635-11.641-.979-14.191-.982-9.552-1.375-12.037,1.111-9.352,2.943-10.463,4.449-4.842,6.017-5.953c1.322-.936,2.783-2.148,3.21-2.513l.126-.1a6.192,6.192,0,0,1,1.31-3.068c1.046-1.04,10.66,6.606,10.66,6.606s.068.589.721-.522c.147-.249,1.415,1.58,1.635,2.353,0,0,5.232,9.159,5.56,11.046s1.7,8.045,1.961,9.549c.068.387.178,1.743.307,3.559.025.356.046.733.074,1.126.193,3.013.4,6.861.528,9.77,0,.331.028.65.037.957A32.55,32.55,0,0,1,443.776,356.074Z" transform="translate(-296.648 -224.558)"/><path class="f" d="M415,387.21s3.6,4.382,4.774,4.382S415,387.21,415,387.21Z" transform="translate(-301.331 -279.309)"/><path class="f" d="M428,417.91s-5.888,6.41-5.1,7.588S428,417.91,428,417.91Z" transform="translate(-306.683 -300.589)"/><path class="f" d="M425.62,437.022s6.75-7.392,7.057-9.942Z" transform="translate(-308.577 -306.945)"/><path class="f" d="M453.33,443.073s7.784-4.121,8.438-7.392S453.33,443.073,453.33,443.073Z" transform="translate(-327.523 -312.475)"/><path class="f" d="M483.08,329.653,482,332.267l1.8.85,1.767,4.94s4.873,9.745,4.676,14.814a89.8,89.8,0,0,0,.884,12.688l2.811-.522-1.326-14.909a21.507,21.507,0,0,0-1.712-6.692c-2.246-5.143-6.425-14.636-6.689-14.636-.359,0-.107.132-.107.132Z" transform="translate(-347.099 -238.822)"/><path class="s" d="M483.93,328.8l-1.08,2.617,1.8.85,1.764,4.94s4.873,9.745,4.676,14.814a89.8,89.8,0,0,0,.884,12.688l2.814-.522-1.329-14.909a21.422,21.422,0,0,0-1.709-6.692c-2.246-5.146-6.425-14.636-6.686-14.636-.362,0-.11.132-.11.132Z" transform="translate(-347.68 -238.232)"/><path class="m" d="M575.478,435.428c-1.368-.1-4.651-1.764-5.956-2.455l-.552-.307.068-5.066a8.876,8.876,0,0,1,1-.506c1.743-.761,5.318-1.8,7.109,1.534C579.565,433.093,577.212,435.545,575.478,435.428Z" transform="translate(-406.632 -306.42)"/><path class="f" d="M454.027,245.821a1.452,1.452,0,0,1-.457.187c-1.138.249-2.433-.73-3.409-.1a2.47,2.47,0,0,0-.813,1.893q-.209,1.841-.417,3.658a4.516,4.516,0,0,1-.27,1.261,3.164,3.164,0,0,1-3.01,1.6,1.8,1.8,0,0,1-1.3-.43c-.212-.215-.325-.516-.558-.712-1.534-1.286-2,1.866-1.6,2.762.65,1.464,2.961,2.875,1.991,4.734a1.773,1.773,0,0,1-.712.715,9.819,9.819,0,1,1,10.549-15.569Z" transform="translate(-315.98 -178.794)"/><path class="t" d="M436.4,243.145c.23.193.347.494.558.709a1.8,1.8,0,0,0,1.3.43,3.148,3.148,0,0,0,3.007-1.6,4.37,4.37,0,0,0,.273-1.258l.417-3.658a2.46,2.46,0,0,1,.813-1.893c.976-.614,2.271.35,3.409.1a1.666,1.666,0,0,0,1.227-1.921,10.808,10.808,0,0,0-.81-1.608,10.528,10.528,0,0,1-.334-1.31c-.635-2.381-3.43-3.719-5.861-3.32-1.35.224-2.605.868-3.958,1.065-.97.141-1.961.049-2.94.153a7.419,7.419,0,0,0-2.608.77,1.515,1.515,0,0,0-.552.417,2.3,2.3,0,0,0-.276.786c-.328,1.227-1.384,2.132-2.148,3.167a7.545,7.545,0,0,0-1.454,4.084,3.273,3.273,0,0,0,.1,1.12c.064.215.166.423.215.644a4.488,4.488,0,0,1-.362,2.013,4.025,4.025,0,0,0,.215,2.559c1.178,2.709,5.06,3.615,5.867,6.459a6.445,6.445,0,0,0,2.283.614,2.2,2.2,0,0,0,2.013-1.028c.967-1.841-1.341-3.271-1.991-4.731C434.4,245,434.852,241.856,436.4,243.145Z" transform="translate(-308.902 -168.772)"/><path class="f" d="M681.184,290.891a11.274,11.274,0,0,0-.614,4.369c-.472.4-.988-.8-1.534-.491-1.5.865-3.228,2.924-5.081,2.924a10.177,10.177,0,0,1-4.624-1.108,26.9,26.9,0,0,0-1.841-5S683.277,284.874,681.184,290.891Z" transform="translate(-473.957 -210.808)"/><path class="r" d="M675.671,260.705A10.205,10.205,0,1,1,665.466,250.5,10.205,10.205,0,0,1,675.671,260.705Z" transform="translate(-465.48 -184.547)"/><path class="u" d="M663.417,325.326s-1.921,2.093-2.182,2.264-5.83,23.627-5.928,23.9-6.631,21.451-6.631,21.451l-10.466,5.146.875-25.9,7.671-21.362s2.531-2.878,3.314-3.924,10.552-7.327,10.552-7.327l1.669,3.44Z" transform="translate(-453.738 -232.424)"/><path class="f" d="M688.227,324.72l-12.034,8.616L676,328.6c.785-1.046,10.552-7.324,10.552-7.324Z" transform="translate(-479.807 -233.609)"/><path class="u" d="M689.091,323.01l-12.034,8.616-.187-4.728c.786-1.049,10.552-7.327,10.552-7.327Z" transform="translate(-480.402 -232.424)"/><path class="j" d="M642.073,336.59l.4,2.1-2.691,2.734,2.148-4.808s-4.6,3.206-5.983,4.056a8.735,8.735,0,0,0-2.814,4.514c-.052.786-2.225,12.623-2.225,12.623s-1.635,4.382-1.175,5.624-2.485,40.423-2.485,40.423a5.83,5.83,0,0,1,3.934-3.016l-1.049-23.154s1.276-15.4,1.341-15.6,2.976-9.125,2.976-9.125Z" transform="translate(-446.411 -244.221)"/><path class="f" d="M646.032,344.3l-.209,4.3s-2.912,9.19-3.891,10.693-3.958,10.466-3.958,10.466L636.3,385.324l-2.878,1.31L632,384.023l2.357-15.035s4.446-12.688,5.1-14l3.28-6.91Z" transform="translate(-449.679 -249.566)"/><path class="v" d="M645.151,343.45l-.206,4.3s-2.912,9.19-3.894,10.693-3.955,10.466-3.955,10.466l-1.669,15.566-2.878,1.307-1.439-2.614,2.357-15.035s4.446-12.691,5.1-14l3.3-6.9Z" transform="translate(-449.07 -248.976)"/><path class="r" d="M566.31,447.087l5.624,3.894s3.967-2.225,1.657-3.664a10.244,10.244,0,0,0-5.1-1.657C567.746,445.66,566.31,447.087,566.31,447.087Z" transform="translate(-404.829 -319.824)"/><path class="r" d="M579.078,425.681a.865.865,0,0,0-.408.739c0,1.194.135,4.354,1.135,2.927,1.227-1.746,1-3.314,2.878-2.182a11.045,11.045,0,0,1,3.007,2.762l-.522-3.75S581.315,424.276,579.078,425.681Z" transform="translate(-413.299 -305.617)"/><path class="f" d="M669.68,527.171a8.447,8.447,0,0,0-.736,2.654,22.171,22.171,0,0,1-19.862-3.833,100.091,100.091,0,0,1-2.485-10.463,34.11,34.11,0,0,1,.031-6.413l20.506-3.6S670.99,525.142,669.68,527.171Z" transform="translate(-459.41 -361.317)"/><path class="j" d="M681.414,339.542a20.334,20.334,0,0,0-.325,5.167l-4.71,22.24s-2.289,17.137-2.682,19.426-1.046,12.363-1.046,12.363a22.155,22.155,0,0,1-23.627-2.353,100.283,100.283,0,0,1-2.485-10.466c-.657-3.885,1.276-19.447,2.191-26.361.273-2.047.457-3.335.457-3.335l3.434-12.755s4.219-10.761,5.79-13.9,7.88-10.19,7.88-10.19c.782-.5,2.034,1.258,2.964,2.857.7,1.209,1.227,2.332,1.227,2.332s7.849,3.4,9.024,5.216.982,5.56,1.114,5.756S681.938,337.842,681.414,339.542Z" transform="translate(-459.159 -232.23)"/><path class="f" d="M668.773,332.217s.589,3.467-.921,4.514c-1.458,1.013-12.307,22.347-12.982,23.679.273-2.05.457-3.338.457-3.338l3.433-12.752s4.222-10.761,5.79-13.9,7.883-10.19,7.883-10.19c.782-.5,2.031,1.258,2.961,2.857C673.992,325.995,671.068,331.5,668.773,332.217Z" transform="translate(-465.212 -232.819)"/><path class="j" d="M667.909,331.367s.586,3.467-.92,4.514-12.3,22.344-12.989,23.676c.273-2.047.457-3.335.457-3.335l3.433-12.755s4.219-10.761,5.79-13.9,7.88-10.19,7.88-10.19c.782-.5,2.034,1.258,2.964,2.857C673.128,325.142,670.2,330.649,667.909,331.367Z" transform="translate(-464.617 -232.23)"/><path class="w" d="M612.466,411.6l-3.691,19.2v0l-.353,1.838v0l-.795,4.133-3.391-.718-1.58-.334L580.788,431.1l-1.608-.341-3.67-.776.718-4.768.3-1.982,2.648-17.582Z" transform="translate(-393.545 -281.134)"/><path class="r" d="M667.572,511.92s-8.7,3.139-6.8,6.867,14.062-2.878,14.062-2.878Z" transform="translate(-469.168 -365.753)"/><path class="f" d="M703.8,599.1c0,.261.328,3.6,1.635,4.774S703.8,599.1,703.8,599.1Z" transform="translate(-499.003 -426.183)"/><path class="f" d="M675.24,637.68s1.568,4.317,7.781,6.085S675.24,637.68,675.24,637.68Z" transform="translate(-479.336 -452.925)"/><path class="f" d="M680.156,260.765a10.2,10.2,0,0,1-5.115,8.846,5.434,5.434,0,0,1-1.534-1.28,1.983,1.983,0,0,1-.525-1.921c.215-.519.782-.847.921-1.384a2.037,2.037,0,0,0-.049-.988c-.114-.506-.221-1.013-.331-1.516-.1-.43-.264-.936-.69-1.04s-.782.252-1.117.516a3.5,3.5,0,0,1-3.375.555c-.985-.531-.709-2.307-.868-3.268a.571.571,0,0,0-.215-.433.9.9,0,0,0-.445-.031,1.281,1.281,0,0,1-1.111-.985,8.475,8.475,0,0,1-.178-1.58,1.763,1.763,0,0,0-.706-1.365,2.182,2.182,0,0,0-1.163-.19l-1.924.021a10.206,10.206,0,0,1,18.41,6.051Z" transform="translate(-469.939 -184.607)"/><path class="v" d="M667.961,255.783c.334-.264.7-.614,1.117-.512s.592.614.687,1.037l.331,1.513a2.057,2.057,0,0,1,.052.991c-.156.54-.721.865-.939,1.384a1.983,1.983,0,0,0,.525,1.918A5.523,5.523,0,0,0,672.892,264a2.32,2.32,0,0,0,.985.022,2.916,2.916,0,0,0,1.62-1.47c2.028-3.16,3.774-6.625,4.13-10.362a6.647,6.647,0,0,0-.1-2.286,7.673,7.673,0,0,0-.7-1.672,13.5,13.5,0,0,0-1.973-2.985,11.206,11.206,0,0,0-5.3-2.973,17.956,17.956,0,0,0-6.846-.537c-.614.071-1.2.172-1.807.212a18.19,18.19,0,0,1-2.277-.037l-4.517-.27a1.755,1.755,0,0,0,.307,1.639,2.941,2.941,0,0,1,.663,1.583,3.258,3.258,0,0,1-.758,1.534,1.51,1.51,0,0,0-.242,1.6,1.716,1.716,0,0,0,1.534.5l2.277-.025a2.176,2.176,0,0,1,1.157.2,1.768,1.768,0,0,1,.706,1.365,9.034,9.034,0,0,0,.178,1.58,1.277,1.277,0,0,0,1.111.985.829.829,0,0,1,.445.034.565.565,0,0,1,.215.43c.16.96-.135,2.734.868,3.268A3.534,3.534,0,0,0,667.961,255.783Z" transform="translate(-465.873 -178.391)"/><path class="f" d="M693.768,353.406a5,5,0,0,0-5.262,3.36c-1.227,3.495-3.274,9.8-2.762,12.292.721,3.532,1.571,9.42,1.571,9.42s3.728,2.148,1.841,4.314a12.218,12.218,0,0,0-2.421,5.235,5.44,5.44,0,0,0-2.943,3.271c-.522,2.225-4.056,5.3-4.056,5.3l-5.3,5.3s8.763,8.9,10.531,9.352L690.4,404.9l6.41-8.5,5.56-5.83s1.307-3.068.653-8.9a42.582,42.582,0,0,0-3.206-11.381l.2-1.964S700.613,354.256,693.768,353.406Z" transform="translate(-478.441 -255.858)"/><path class="j" d="M695.475,353.408a5,5,0,0,0-5.256,3.36c-1.227,3.495-3.274,9.8-2.762,12.292.718,3.532,1.568,9.42,1.568,9.42s3.728,2.148,1.841,4.314a12.2,12.2,0,0,0-2.418,5.235A5.451,5.451,0,0,0,685.5,391.3c-.525,2.225-4.053,5.3-4.053,5.3l-5.3,5.3s8.763,8.9,10.531,9.352l5.428-6.345,6.394-8.5,5.56-5.83s1.31-3.068.654-8.9a42.773,42.773,0,0,0-3.2-11.381l.2-1.964S702.32,354.258,695.475,353.408Z" transform="translate(-479.611 -255.86)"/><path class="f" d="M721.28,418.34s5.56,6.8,7.916,5.3S721.28,418.34,721.28,418.34Z" transform="translate(-510.854 -300.887)"/><path class="f" d="M728.1,401.28c.589.2,5.431,6.935,7.916,6.137S728.1,401.28,728.1,401.28Z" transform="translate(-515.52 -289.062)"/><path class="f" d="M732.58,439a3.642,3.642,0,0,0,4.317,3.335C740.886,441.811,732.58,439,732.58,439Z" transform="translate(-518.638 -315.208)"/><path class="f" d="M616.147,301.83l-2.157,4.808,2.694-2.734Z" transform="translate(-420.449 -209.17)"/><path class="u" d="M616.147,300.98l-2.157,4.808,2.694-2.734Z" transform="translate(-420.449 -208.581)"/><path class="x" d="M582.41,470.817l-1.608-.341-2.952-5.545.3-1.982Z" transform="translate(-395.689 -320.852)"/><path class="x" d="M670.1,487.65l-.353,1.838v0l-4.185,3.415-1.58-.335Z" transform="translate(-454.6 -337.973)"/><path class="f" d="M451.8,377.66c-.81.135-1.6.258-2.314.35-3.989.525-13.476-4.185-13.476-4.185s-11.577-9.681-14.912-18.837,3.989-10.531,3.989-10.531c2.762-1.571,8.766,2.811,9.616,3.532a5.462,5.462,0,0,1,1.5,3.728c-.068,1.178,1.964,2.682,1.964,2.682s3.467,6.017,4.317,6.671a3.413,3.413,0,0,1,1.307,2.357c.261,1.114,2.55,2.028,3.532,1.961s2.148.328,2.148.85c0,.42.96.629,1.749.7C451.452,370.287,451.682,374.681,451.8,377.66Z" transform="translate(-304.634 -249.441)"/><path class="f" d="M452.944,374.339c-.614.1-1.2.187-1.755.261-3.989.525-13.473-4.185-13.473-4.185s-11.577-9.681-14.912-18.837,3.989-10.531,3.989-10.531c2.762-1.571,8.763,2.811,9.613,3.532a5.479,5.479,0,0,1,1.507,3.728c-.064,1.178,1.961,2.682,1.961,2.682s3.467,6.017,4.317,6.671a3.427,3.427,0,0,1,1.31,2.356c.264,1.114,2.55,2.025,3.532,1.961s2.148.328,2.148.85c0,.307.546.512,1.154.614.025.356.046.733.074,1.126C452.61,367.583,452.818,371.43,452.944,374.339Z" transform="translate(-305.809 -247.077)"/><path class="f" d="M570.038,428.84l-.249,5.879h-.267l-.552-.307.068-5.066A8.885,8.885,0,0,1,570.038,428.84Z" transform="translate(-406.741 -308.165)"/><path class="n" d="M425.082,342.75s-7.324,1.375-3.989,10.531,14.912,18.84,14.912,18.84,9.484,4.707,13.476,4.185,10.07-1.9,10.856-1.7,6.085.2,6.085.2l.261-6.137-6.137-.328-3.139-.654s-1.114-.921-1.767-.785-2.025-.786-2.025-.786a3.91,3.91,0,0,0-1.841-.85c-.792,0-2.289-.2-2.289-.718s-1.178-.921-2.148-.85-3.286-.85-3.556-1.976a3.415,3.415,0,0,0-1.307-2.353c-.85-.654-4.317-6.674-4.317-6.674s-2.028-1.5-1.964-2.679a5.489,5.489,0,0,0-1.5-3.731C433.84,345.56,427.825,341.182,425.082,342.75Z" transform="translate(-304.461 -248.258)"/><path class="f" d="M492.461,412.15s-2.814,2.814-2.1,3.335Z" transform="translate(-352.852 -296.597)"/><path class="f" d="M500.824,419.4s-3.664,2.814-2.682,3.01S500.824,419.4,500.824,419.4Z" transform="translate(-358.133 -301.622)"/><path class="f" d="M487,433c.525.264,8.306,4.909,11.252,4.842Z" transform="translate(-350.527 -311.049)"/><path class="f" d="M461.4,316.66s-1.375,4.514-1.9,4.514c-.411,0-7.315-5.591-10.2-7.941l.126-.1a6.176,6.176,0,0,1,1.307-3.068C451.779,309.02,461.4,316.66,461.4,316.66Z" transform="translate(-324.727 -225.764)"/><path class="n" d="M460.535,314.95s-1.371,4.514-1.9,4.514c-.414,0-7.318-5.591-10.2-7.941l.126-.1a6.193,6.193,0,0,1,1.31-3.068C450.922,307.31,460.535,314.95,460.535,314.95Z" transform="translate(-324.139 -224.579)"/><g class="y" transform="translate(117.771 60.642)"><path d="M427.49,282.54h0c.92,2.1,3.455,3.121,4.925,4.8C431.54,285.277,428.984,284.267,427.49,282.54Z" transform="translate(-427.49 -267.398)"/><path d="M448.952,294.314a2.205,2.205,0,0,1-2.013,1.028,5.874,5.874,0,0,1-2.019-.516,3.928,3.928,0,0,1,.522,1.111,6.412,6.412,0,0,0,2.283.614,2.184,2.184,0,0,0,2.013-1.028c.586-1.12-.025-2.077-.739-2.982A1.949,1.949,0,0,1,448.952,294.314Z" transform="translate(-439.572 -274.329)"/><path d="M464.641,237.8a10.517,10.517,0,0,0-.81-1.608,10.046,10.046,0,0,1-.334-1.313,4.069,4.069,0,0,0-.942-1.685,3.917,3.917,0,0,1,.157.463,10.555,10.555,0,0,0,.344,1.319,10.524,10.524,0,0,1,.81,1.608,1.666,1.666,0,0,1-1.227,1.921c-1.135.249-2.43-.733-3.406-.1a2.451,2.451,0,0,0-.816,1.89q-.206,1.841-.417,3.661a4.387,4.387,0,0,1-.27,1.258,3.161,3.161,0,0,1-3.01,1.6,1.807,1.807,0,0,1-1.295-.43,8.564,8.564,0,0,0-.561-.712c-1.534-1.289-2,1.862-1.6,2.762a5.56,5.56,0,0,0,.749,1.126c-.338-1.013.135-3.928,1.632-2.679a7.924,7.924,0,0,1,.558.712,1.819,1.819,0,0,0,1.3.43,3.161,3.161,0,0,0,3.01-1.6,4.385,4.385,0,0,0,.27-1.261q.209-1.841.417-3.658a2.459,2.459,0,0,1,.813-1.89c.979-.632,2.274.35,3.409.1a1.663,1.663,0,0,0,1.218-1.912Z" transform="translate(-443.875 -233.19)"/></g><path class="f" d="M674.368,263.136a2.372,2.372,0,0,1-.985-.025,5.523,5.523,0,0,1-3.154-1.884,1.975,1.975,0,0,1-.525-1.921c.215-.519.779-.844.92-1.384a2.054,2.054,0,0,0-.052-.991l-.331-1.513c-.1-.43-.261-.936-.687-1.037s-.782.249-1.117.512a3.5,3.5,0,0,1-3.375.555c-.982-.534-.709-2.307-.868-3.268a.573.573,0,0,0-.215-.43.875.875,0,0,0-.448-.034,1.285,1.285,0,0,1-1.111-.985,8.718,8.718,0,0,1-.175-1.58,1.77,1.77,0,0,0-.709-1.365,2.206,2.206,0,0,0-1.157-.2l-2.277.025c-.562,0-1.227-.037-1.534-.5a1.528,1.528,0,0,1,.242-1.6,3.176,3.176,0,0,0,.758-1.534,2.886,2.886,0,0,0-.663-1.583,2.84,2.84,0,0,1-.387-.878l-.654-.04a1.765,1.765,0,0,0,.307,1.638,2.927,2.927,0,0,1,.663,1.58,3.257,3.257,0,0,1-.758,1.534,1.5,1.5,0,0,0-.239,1.6,1.715,1.715,0,0,0,1.534.506l2.277-.028a2.2,2.2,0,0,1,1.157.2,1.762,1.762,0,0,1,.709,1.365,8.469,8.469,0,0,0,.178,1.58,1.27,1.27,0,0,0,1.111.982.9.9,0,0,1,.445.034.577.577,0,0,1,.215.433c.16.957-.135,2.734.868,3.268a3.481,3.481,0,0,0,3.375-.555c.334-.264.706-.614,1.12-.516s.592.614.684,1.037l.334,1.516a2.052,2.052,0,0,1,.049.991c-.154.537-.721.865-.936,1.381a1.981,1.981,0,0,0,.525,1.921,5.523,5.523,0,0,0,3.176,1.884,2.372,2.372,0,0,0,.985.025,2.313,2.313,0,0,0,1.276-.97A1.706,1.706,0,0,1,674.368,263.136Z" transform="translate(-465.792 -178.288)"/><ellipse class="a" cx="7.416" cy="1.138" rx="7.416" ry="1.138" transform="translate(55.084 218.083)"/><ellipse class="a" cx="7.416" cy="1.138" rx="7.416" ry="1.138" transform="translate(323.309 188.486)"/><ellipse class="a" cx="21.479" cy="3.295" rx="21.479" ry="3.295" transform="translate(231.418 232.201)"/><ellipse class="a" cx="16.753" cy="2.571" rx="16.753" ry="2.571" transform="translate(299.422 218.964)"/><ellipse class="a" cx="28.41" cy="4.36" rx="28.41" ry="4.36" transform="translate(285.007 242.796)"/><ellipse class="a" cx="21.479" cy="3.295" rx="21.479" ry="3.295" transform="translate(9.279 247.696)"/><path class="w" d="M253.668,631.85s.841,1.1-.387,2.762-2.24,3.068-1.841,4.093c0,0,1.841-3.068,3.375-3.124S255.328,633.7,253.668,631.85Z" transform="translate(-190.831 -448.884)"/><path class="f" d="M253.791,631.85a1.223,1.223,0,0,1,.172.344c1.473,1.731,2.255,3.341.841,3.375-1.316.037-2.9,2.393-3.274,2.989a1.129,1.129,0,0,0,.043.135s1.841-3.068,3.375-3.124S255.451,633.7,253.791,631.85Z" transform="translate(-190.954 -448.884)"/><path class="z" d="M263.556,635.848c0,.387-.046.7-.1.7s-.1-.307-.1-.7.055-.2.107-.2S263.556,635.462,263.556,635.848Z" transform="translate(-199.154 -451.483)"/><path class="z" d="M264.246,637.317c-.337.184-.635.307-.66.249s.227-.233.568-.42.206-.049.23,0S264.587,637.13,264.246,637.317Z" transform="translate(-199.31 -452.488)"/><path class="w" d="M240.18,631.85s-.841,1.1.387,2.762,2.243,3.068,1.841,4.093c0,0-1.841-3.068-3.36-3.124S238.511,633.7,240.18,631.85Z" transform="translate(-181.779 -448.884)"/><path class="f" d="M240.165,631.85a1.352,1.352,0,0,0-.172.344c-1.473,1.731-2.255,3.341-.841,3.375,1.316.037,2.9,2.393,3.277,2.989a1.166,1.166,0,0,1-.046.135s-1.841-3.068-3.36-3.124S238.5,633.7,240.165,631.85Z" transform="translate(-181.764 -448.884)"/><path class="z" d="M239.35,635.848c0,.387.043.7.1.7s.1-.307.1-.7-.055-.2-.107-.2S239.35,635.462,239.35,635.848Z" transform="translate(-182.511 -451.483)"/><path class="z" d="M237.134,637.317c.341.184.635.307.663.249s-.23-.233-.571-.42-.206-.049-.23,0S236.793,637.13,237.134,637.317Z" transform="translate(-180.832 -452.488)"/><ellipse class="a" cx="8.785" cy="1.347" rx="8.785" ry="1.347" transform="translate(51.834 195.528)"/><path class="aa" d="M245.971,648.192l-.043.344-.058.485-.025.2-.058.485-.028.2-.058.485-.672,5.523c-.058.491-.862.874-1.841.874h-3.48c-.97,0-1.774-.384-1.841-.874L237.2,650.4l-.058-.485-.025-.2-.061-.485-.025-.2-.058-.485-.043-.344c-.034-.279.4-.512.951-.512h7.146C245.569,647.68,246.005,647.913,245.971,648.192Z" transform="translate(-180.83 -459.857)"/><path class="ab" d="M191.92,614.76l-.058.485h-8.843l-.058-.485Z" transform="translate(-126.821 -426.081)"/><path class="ab" d="M192.024,617l-.058.485h-8.674L183.23,617Z" transform="translate(-127.008 -427.634)"/><path class="ab" d="M192.135,619.24l-.061.485h-8.506l-.058-.485Z" transform="translate(-127.202 -429.186)"/><path class="w" d="M1082.442,618s-1.05,4.885,3.618,5.462l.288-.543S1082.73,619.516,1082.442,618Z" transform="translate(-757.561 -439.284)"/><path class="w" d="M1091.083,617.313l-1.086.23-.107.025s-2.9-2.35-2.86-7.6a12.935,12.935,0,0,0,1.384,2.188C1089.561,613.677,1090.865,615.7,1091.083,617.313Z" transform="translate(-760.811 -433.718)"/><path class="w" d="M1095.605,613.733a.681.681,0,0,1-.583.077c-2.786-.65-1.841-9.73-1.841-9.73.154.071.307,1.227.964,2.719C1095.265,609.416,1096.5,613.076,1095.605,613.733Z" transform="translate(-764.968 -429.635)"/><path class="w" d="M1110.777,618s.181,4.885-4.486,5.462l-.292-.552S1110.489,619.516,1110.777,618Z" transform="translate(-773.961 -439.284)"/><path class="w" d="M1106.1,610a9.034,9.034,0,0,1-3.725,7.6l-.11-.024-1.083-.23c.215-1.611,1.534-3.636,2.666-5.155A11.811,11.811,0,0,1,1106.1,610Z" transform="translate(-770.62 -433.739)"/><path class="w" d="M1100.75,613.268a1.7,1.7,0,0,1-.614.476h0a1.2,1.2,0,0,1-.23.077c-.684.159-.921-.335-.884-1.175a21.741,21.741,0,0,1,1.841-6.029,7.538,7.538,0,0,1,1.749-2.525S1102.569,611.156,1100.75,613.268Z" transform="translate(-769.121 -429.642)"/><path class="w" d="M1098.685,593.7s-3.111,11.046-.433,12.7S1099.373,594.676,1098.685,593.7Z" transform="translate(-767.837 -422.44)"/><path class="f" d="M1082.442,618s-1.05,4.885,3.618,5.462l.288-.543S1082.73,619.516,1082.442,618Z" transform="translate(-757.561 -439.284)"/><path class="f" d="M1091.083,617.313l-1.086.23-.107.025s-2.9-2.35-2.86-7.6a12.935,12.935,0,0,0,1.384,2.188C1089.561,613.677,1090.865,615.7,1091.083,617.313Z" transform="translate(-760.811 -433.718)"/><path class="f" d="M1095.605,613.733a.681.681,0,0,1-.583.077c-2.786-.65-1.841-9.73-1.841-9.73.154.071.307,1.227.964,2.719C1095.265,609.416,1096.5,613.076,1095.605,613.733Z" transform="translate(-764.968 -429.635)"/><path class="f" d="M1110.777,618s.181,4.885-4.486,5.462l-.292-.552S1110.489,619.516,1110.777,618Z" transform="translate(-773.961 -439.284)"/><path class="f" d="M1106.1,610a9.034,9.034,0,0,1-3.725,7.6l-.11-.024-1.083-.23c.215-1.611,1.534-3.636,2.666-5.155A11.811,11.811,0,0,1,1106.1,610Z" transform="translate(-770.62 -433.739)"/><path class="f" d="M1100.75,613.268a1.7,1.7,0,0,1-.614.476h0a1.2,1.2,0,0,1-.23.077c-.684.159-.921-.335-.884-1.175a21.741,21.741,0,0,1,1.841-6.029,7.538,7.538,0,0,1,1.749-2.525S1102.569,611.156,1100.75,613.268Z" transform="translate(-769.121 -429.642)"/><path class="f" d="M1098.685,593.7s-3.111,11.046-.433,12.7S1099.373,594.676,1098.685,593.7Z" transform="translate(-767.837 -422.44)"/><path class="w" d="M1082.61,618s-.614,4.885,4.05,5.462l.288-.543S1082.9,619.516,1082.61,618Z" transform="translate(-757.729 -439.284)"/><path class="w" d="M1091.495,617.333l-1.086.23-.107.025A9.328,9.328,0,0,1,1087,610s.853.92,1.817,2.188C1089.973,613.7,1091.277,615.723,1091.495,617.333Z" transform="translate(-760.79 -433.739)"/><path class="f" d="M1095.62,622.255l-1.086.23c-1.028-.9-1.436-3.259-1.583-5.385C1094.1,618.619,1095.4,620.644,1095.62,622.255Z" transform="translate(-764.915 -438.66)"/><path class="w" d="M1096.3,613.733a.688.688,0,0,1-.586.077c-2.786-.65-2.277-9.73-2.277-9.73a12.61,12.61,0,0,1,1.4,2.719C1095.959,609.416,1097.193,613.076,1096.3,613.733Z" transform="translate(-765.228 -429.635)"/><path class="w" d="M1111.769,618s.614,4.885-4.05,5.462l-.288-.543S1111.48,619.516,1111.769,618Z" transform="translate(-774.952 -439.284)"/><path class="w" d="M1107.076,610a9.315,9.315,0,0,1-3.293,7.6l-.107-.024-1.086-.23c.215-1.611,1.534-3.636,2.67-5.155C1106.223,610.92,1107.076,610,1107.076,610Z" transform="translate(-771.597 -433.739)"/><path class="f" d="M1105.26,617.1c-.141,1.982-.5,4.164-1.384,5.183a1.533,1.533,0,0,1-.2.2l-1.086-.23C1102.8,620.644,1104.112,618.619,1105.26,617.1Z" transform="translate(-771.597 -438.66)"/><path class="w" d="M1102.16,613.268a1.661,1.661,0,0,1-.614.476h0a1.242,1.242,0,0,1-.227.077c-.687.159-.921-.335-.887-1.175a21.955,21.955,0,0,1,1.841-6.029,11.808,11.808,0,0,1,1.316-2.525S1103.98,611.156,1102.16,613.268Z" transform="translate(-770.1 -429.642)"/><path class="f" d="M1099.164,619.875a.735.735,0,0,1-.442-.141c-1.311-.816-1.338-3.878-1.025-6.793C1098.824,615.557,1100.057,619.218,1099.164,619.875Z" transform="translate(-768.091 -435.776)"/><path class="f" d="M1102.167,618.972c-.151.328-.353.5-.614.476h0a.828.828,0,0,1-.371-.141,1.981,1.981,0,0,1-.742-.957,21.959,21.959,0,0,1,1.841-6.029C1102.582,615.011,1102.683,617.865,1102.167,618.972Z" transform="translate(-770.107 -435.347)"/><path class="w" d="M1099.434,593.7s-2.676,11.046,0,12.7S1100.121,594.676,1099.434,593.7Z" transform="translate(-768.585 -422.44)"/><path class="ac" d="M1039.581,597.61H1028.44v1.844h1.7l.043.218.681,3.581h6.477l.681-3.581.04-.218h1.519Z" transform="translate(-703.596 -414.193)"/><path class="f" d="M1039.581,597.61H1028.44v1.844h1.7l.043.218.681,3.581h6.477l.681-3.581.04-.218h1.519Z" transform="translate(-703.596 -414.193)"/><path class="ac" d="M1043.134,601.14l-.187.979-.681,3.581h-6.477l-.681-3.581-.187-.979Z" transform="translate(-708.088 -416.64)"/><path class="f" d="M1043.134,601.14l-.187.979h-7.84l-.187-.979Z" transform="translate(-708.088 -416.64)"/><rect class="ac" width="11.141" height="1.844" transform="translate(325.276 183.417)"/><path class="w" d="M150.248,731a5.351,5.351,0,0,0-.7,1.319c-.043.113-.086.245-.129.371a1.333,1.333,0,0,0-.242-.086,3.376,3.376,0,0,0-1.1-.092c0-.144.018-.307.021-.451.046-1.617-.144-3.869-1.688-2.915-1.479.92-.423,2.455.531,3.437.083.086.166.166.245.242-.871.614-1.037,2.065-1.181,3.571a8.326,8.326,0,0,1-2.274,4.09c-.086.1-.163.181-.239.261a3.114,3.114,0,0,0-2.47-.635c-.034-.132-.074-.27-.114-.414-.687-2.482-2.114-6.781-3.934-7.723l.239-.307c.773-1.01,1.645-2.513.359-2.9s-1.4,1.3-1.332,2.565q.018.239.037.451a1.882,1.882,0,0,0-1.344.657l-.2-.236c-1.043-1.227-2.955-3.182-3.535-1.706-.54,1.375,1.144,3.16,2.329,4.194l.074.064c-.795,3.225,2.676,5.854,4.544,7.005l.242.147c-2.577,3.038-4.17,8.732-4.17,8.732l7.217,1.289s4.787-4.13,4.173-8.008h.049c4.784-.957,5.87-6.057,5.124-9.086l.086-.034a5.415,5.415,0,0,0,2.215-1.675A1.777,1.777,0,0,0,150.248,731Z" transform="translate(-107.478 -516.03)"/><path class="f" d="M150.248,731a5.351,5.351,0,0,0-.7,1.319c-.043.113-.086.245-.129.371a1.333,1.333,0,0,0-.242-.086,3.376,3.376,0,0,0-1.1-.092c0-.144.018-.307.021-.451.046-1.617-.144-3.869-1.688-2.915-1.479.92-.423,2.455.531,3.437.083.086.166.166.245.242-.871.614-1.037,2.065-1.181,3.571a8.326,8.326,0,0,1-2.274,4.09c-.086.1-.163.181-.239.261a3.114,3.114,0,0,0-2.47-.635c-.034-.132-.074-.27-.114-.414-.687-2.482-2.114-6.781-3.934-7.723l.239-.307c.773-1.01,1.645-2.513.359-2.9s-1.4,1.3-1.332,2.565q.018.239.037.451a1.882,1.882,0,0,0-1.344.657l-.2-.236c-1.043-1.227-2.955-3.182-3.535-1.706-.54,1.375,1.144,3.16,2.329,4.194l.074.064c-.795,3.225,2.676,5.854,4.544,7.005l.242.147c-2.577,3.038-4.17,8.732-4.17,8.732l7.217,1.289s4.787-4.13,4.173-8.008h.049c4.784-.957,5.87-6.057,5.124-9.086l.086-.034a5.415,5.415,0,0,0,2.215-1.675A1.777,1.777,0,0,0,150.248,731Z" transform="translate(-107.478 -516.03)"/><path class="w" d="M136.88,735.946l-.844,2.455s-.469-.331-1.062-.853c-1.184-1.034-2.869-2.82-2.329-4.194.58-1.476,2.492.472,3.535,1.706C136.6,735.55,136.88,735.946,136.88,735.946Z" transform="translate(-108.476 -518.875)"/><path class="w" d="M150.249,731.684a11.665,11.665,0,0,1-.822.97,12.943,12.943,0,0,1-.15-1.3c-.071-1.264.064-2.943,1.332-2.565S151.022,730.675,150.249,731.684Z" transform="translate(-120.065 -516.04)"/><path class="w" d="M182.528,732.518c-.025.813-.1,1.464-.1,1.464a10.71,10.71,0,0,1-1.052-.942c-.954-.991-2.01-2.519-.531-3.437C182.368,728.646,182.558,730.9,182.528,732.518Z" transform="translate(-141.445 -516.484)"/><path class="w" d="M195.272,736.7a5.416,5.416,0,0,1-2.215,1.675,6.616,6.616,0,0,1-.743.27l-.994-1.4a9.871,9.871,0,0,1,.411-1.356,5.35,5.35,0,0,1,.7-1.319A1.776,1.776,0,0,1,195.272,736.7Z" transform="translate(-149.219 -519.605)"/><path class="f" d="M141.676,740.11c.42.491.7.871.7.871l-.844,2.455s-.469-.331-1.062-.853a4.818,4.818,0,0,1,.951-2.169C141.5,740.313,141.593,740.208,141.676,740.11Z" transform="translate(-113.971 -523.926)"/><path class="f" d="M150.283,737.6a11.663,11.663,0,0,1-.822.97,12.944,12.944,0,0,1-.15-1.3A1.7,1.7,0,0,1,150.283,737.6Z" transform="translate(-120.099 -521.957)"/><path class="w" d="M148.191,748.407l-2.1.921s-.457-.221-1.117-.632c-2.206-1.356-6.64-4.771-3.682-8.8s5.452,3.194,6.444,6.726C148.035,747.7,148.191,748.407,148.191,748.407Z" transform="translate(-113.859 -522.957)"/><path class="f" d="M184.18,740.142a1.725,1.725,0,0,1,1.157-.522c-.025.813-.1,1.464-.1,1.464A10.729,10.729,0,0,1,184.18,740.142Z" transform="translate(-144.27 -523.586)"/><path class="f" d="M193.077,742.942a6.664,6.664,0,0,1-.743.27l-.994-1.4a9.881,9.881,0,0,1,.411-1.356A3.621,3.621,0,0,1,193.077,742.942Z" transform="translate(-149.233 -524.168)"/><path class="w" d="M170.468,752.457c-.114.025-.233.046-.353.064-7.036,1.068-2.32-2.728-2.32-2.728s.307-.307.746-.77a8.31,8.31,0,0,0,2.274-4.09c.221-2.28.476-4.418,3.167-3.792C176.623,741.76,177.129,751.122,170.468,752.457Z" transform="translate(-131.84 -524.564)"/><rect class="ad" width="13.443" height="3.535" transform="translate(25.053 245.411)"/><rect class="ad" width="17.563" height="12.335" transform="translate(22.918 233.922)"/><rect class="f" width="13.443" height="3.535" transform="translate(25.053 245.411)"/><rect class="f" width="17.563" height="12.335" transform="translate(22.918 233.922)"/><rect class="ad" width="13.443" height="3.535" transform="translate(25.937 245.411)"/><path class="f" d="M158.282,764.51c.307,1.056.454,1.78.454,1.78l-2.1.921s-.457-.221-1.117-.632A5.388,5.388,0,0,1,158.282,764.51Z" transform="translate(-124.404 -540.839)"/><path class="f" d="M170.468,770.513c-.114.025-.233.046-.353.064-7.036,1.068-2.32-2.728-2.32-2.728s.307-.307.746-.77A4.659,4.659,0,0,1,170.468,770.513Z" transform="translate(-131.84 -542.62)"/><path class="w" d="M142.72,776.267s3.94-14.115,9.466-9.761-2.249,11.046-2.249,11.046Z" transform="translate(-115.531 -541.645)"/><circle class="f" cx="0.442" cy="0.442" r="0.442" transform="translate(28.735 218.712)"/><circle class="f" cx="0.442" cy="0.442" r="0.442" transform="translate(28.699 220.774)"/><circle class="f" cx="0.442" cy="0.442" r="0.442" transform="translate(41.515 219.118)"/><circle class="f" cx="0.442" cy="0.442" r="0.442" transform="translate(31.205 229.688)"/><circle class="f" cx="0.442" cy="0.442" r="0.442" transform="translate(40.595 222.542)"/><circle class="f" cx="0.442" cy="0.442" r="0.442" transform="translate(36.029 227.111)"/><circle class="f" cx="0.442" cy="0.442" r="0.442" transform="translate(30.245 219.596)"/><circle class="f" cx="0.442" cy="0.442" r="0.442" transform="translate(40.3 220.443)"/><circle class="f" cx="0.442" cy="0.442" r="0.442" transform="translate(38.791 223.867)"/><circle class="f" cx="0.442" cy="0.442" r="0.442" transform="translate(34.151 229.357)"/><circle class="f" cx="0.442" cy="0.442" r="0.442" transform="translate(33.194 227.184)"/><circle class="f" cx="0.442" cy="0.442" r="0.442" transform="translate(30.908 222.284)"/><rect class="f" width="13.443" height="1.292" transform="translate(25.937 245.411)"/><rect class="ad" width="17.563" height="12.335" transform="translate(23.801 233.922)"/><circle class="f" cx="0.442" cy="0.442" r="0.442" transform="translate(34.74 231.345)"/><circle class="f" cx="0.442" cy="0.442" r="0.442" transform="translate(32.089 231.897)"/><circle class="a" cx="4.296" cy="4.296" r="4.296" transform="translate(328.566 112.684)"/><circle class="a" cx="3.136" cy="3.136" r="3.136" transform="translate(338.007 104.639)"/></g></svg>