<svg xmlns="http://www.w3.org/2000/svg" width="335" height="180.777" viewBox="0 0 335 180.777"><defs><style>.a,.b,.c,.d,.e{fill:#0edeff;}.a,.m,.o{opacity:0.1;}.b{opacity:0.2;}.d{opacity:0.7;}.e{opacity:0.4;}.f{fill:#767d9f;}.g,.l{fill:#ffc4c4;}.h{fill:#4c4981;}.i{fill:#504f60;}.j{fill:#9c9ca1;}.k{fill:#ae6e79;}.l{opacity:0.67;}.n{fill:#fff;}.o{stroke:#4c4981;stroke-miterlimit:10;}.p{fill:#444053;}</style></defs><g transform="translate(0 -0.04)"><path class="a" d="M363,257.4a53.27,53.27,0,0,1-2.006,14.524,52.73,52.73,0,0,1-5.643,12.967c0,14.671-9.9,27.351-24.279,33.383a48.991,48.991,0,0,1-18.955,3.748H91.594a61.192,61.192,0,0,1-31.667-8.6,54.393,54.393,0,0,1-7.271-5.239C42.7,299.626,36.527,287.8,36.527,274.742a53.012,53.012,0,0,1,22.381-77.018,51.106,51.106,0,0,1,7.47-2.671q1.356-.369,2.741-.662a51.358,51.358,0,0,1,7.47-1.025q1.362-.085,2.738-.1h.5c1.013,0,2.018.035,3.016.094l.328-.556q.6-1.007,1.236-1.994,1.142-1.8,2.4-3.543,1.312-1.842,2.738-3.625l.243-.293q.808-1.007,1.652-1.991Q94.074,178.289,97,175.4c21.116-20.7,54.2-34.021,91.387-34.021,28.938,0,55.389,8.068,75.65,21.4a51.006,51.006,0,0,1,25.166-6.615c28.621,0,51.831,23.535,51.831,52.566a54.158,54.158,0,0,1-.293,5.5A52.71,52.71,0,0,1,363,257.4Z" transform="translate(-28 -141.34)"/><path class="b" d="M250.224,257.52v5.959H244.66Q247.275,260.41,250.224,257.52Z" transform="translate(-181.215 -223.47)"/><rect class="b" width="7.47" height="7.47" transform="translate(71.749 32.538)"/><rect class="b" width="7.47" height="7.47" transform="translate(81.957 32.538)"/><rect class="b" width="7.47" height="7.47" transform="translate(92.168 32.538)"/><rect class="b" width="7.47" height="7.47" transform="translate(102.377 32.538)"/><rect class="b" width="7.47" height="7.47" transform="translate(112.588 32.538)"/><rect class="c" width="7.47" height="7.47" transform="translate(122.799 32.538)"/><rect class="b" width="7.47" height="7.47" transform="translate(133.007 32.538)"/><rect class="b" width="7.47" height="7.47" transform="translate(143.218 32.538)"/><rect class="b" width="7.47" height="7.47" transform="translate(153.426 32.538)"/><rect class="c" width="7.47" height="7.47" transform="translate(163.637 32.538)"/><rect class="b" width="7.47" height="7.47" transform="translate(173.848 32.538)"/><rect class="b" width="7.47" height="7.47" transform="translate(184.056 32.538)"/><rect class="b" width="7.47" height="7.47" transform="translate(194.267 32.538)"/><rect class="b" width="7.47" height="7.47" transform="translate(204.478 32.538)"/><rect class="b" width="7.47" height="7.47" transform="translate(214.686 32.538)"/><rect class="b" width="7.47" height="7.47" transform="translate(224.897 32.538)"/><rect class="c" width="7.47" height="7.47" transform="translate(235.106 32.538)"/><rect class="c" width="7.47" height="7.47" transform="translate(245.317 32.538)"/><rect class="b" width="7.47" height="7.47" transform="translate(255.528 32.538)"/><rect class="b" width="7.47" height="7.47" transform="translate(265.736 32.538)"/><rect class="c" width="7.47" height="7.47" transform="translate(275.947 32.538)"/><rect class="c" width="7.47" height="7.47" transform="translate(286.155 32.538)"/><path class="c" d="M223.015,298.08v3.543h-2.4Q221.762,299.814,223.015,298.08Z" transform="translate(-164.215 -252.153)"/><rect class="b" width="7.47" height="7.47" transform="translate(61.538 42)"/><rect class="c" width="7.47" height="7.47" transform="translate(71.749 42)"/><rect class="b" width="7.47" height="7.47" transform="translate(81.957 42)"/><rect class="d" width="7.47" height="7.47" transform="translate(92.168 42)"/><rect class="b" width="7.47" height="7.47" transform="translate(102.377 42)"/><rect class="e" width="7.47" height="7.47" transform="translate(112.588 42)"/><rect class="c" width="7.47" height="7.47" transform="translate(122.799 42)"/><rect class="e" width="7.47" height="7.47" transform="translate(133.007 42)"/><rect class="b" width="7.47" height="7.47" transform="translate(143.218 42)"/><rect class="e" width="7.47" height="7.47" transform="translate(153.426 42)"/><rect class="c" width="7.47" height="7.47" transform="translate(163.637 42)"/><rect class="e" width="7.47" height="7.47" transform="translate(173.848 42)"/><rect class="e" width="7.47" height="7.47" transform="translate(184.056 42)"/><rect class="b" width="7.47" height="7.47" transform="translate(194.267 42)"/><rect class="e" width="7.47" height="7.47" transform="translate(204.478 42)"/><rect class="e" width="7.47" height="7.47" transform="translate(214.686 42)"/><rect class="b" width="7.47" height="7.47" transform="translate(224.897 42)"/><rect class="b" width="7.47" height="7.47" transform="translate(235.106 42)"/><rect class="e" width="7.47" height="7.47" transform="translate(245.317 42)"/><rect class="b" width="7.47" height="7.47" transform="translate(255.528 42)"/><rect class="c" width="7.47" height="7.47" transform="translate(265.736 42)"/><rect class="c" width="7.47" height="7.47" transform="translate(275.947 42)"/><rect class="c" width="7.47" height="7.47" transform="translate(286.155 42)"/><path class="b" d="M141.02,324.67v5.221h-7.47v-2.551a51.111,51.111,0,0,1,7.47-2.671Z" transform="translate(-102.642 -270.957)"/><path class="b" d="M147.89,177.57v6.908h-7.47v-5.883Z" transform="translate(-99.301 -125.544)"/><rect class="c" width="7.47" height="7.47" transform="translate(51.327 51.464)"/><rect class="d" width="7.47" height="7.47" transform="translate(61.538 51.464)"/><rect class="c" width="7.47" height="7.47" transform="translate(71.749 51.464)"/><rect class="d" width="7.47" height="7.47" transform="translate(81.957 51.464)"/><rect class="d" width="7.47" height="7.47" transform="translate(92.168 51.464)"/><rect class="b" width="7.47" height="7.47" transform="translate(102.377 51.464)"/><rect class="e" width="7.47" height="7.47" transform="translate(112.588 51.464)"/><rect class="e" width="7.47" height="7.47" transform="translate(122.799 51.464)"/><rect class="c" width="7.47" height="7.47" transform="translate(133.007 51.464)"/><rect class="b" width="7.47" height="7.47" transform="translate(143.218 51.464)"/><rect class="e" width="7.47" height="7.47" transform="translate(153.426 51.464)"/><rect class="c" width="7.47" height="7.47" transform="translate(163.637 51.464)"/><rect class="b" width="7.47" height="7.47" transform="translate(173.848 51.464)"/><rect class="e" width="7.47" height="7.47" transform="translate(184.056 51.464)"/><rect class="b" width="7.47" height="7.47" transform="translate(194.267 51.464)"/><rect class="c" width="7.47" height="7.47" transform="translate(204.478 51.464)"/><rect class="b" width="7.47" height="7.47" transform="translate(214.686 51.464)"/><rect class="d" width="7.47" height="7.47" transform="translate(224.897 51.464)"/><rect class="d" width="7.47" height="7.47" transform="translate(235.106 51.464)"/><rect class="e" width="7.47" height="7.47" transform="translate(245.317 51.464)"/><rect class="b" width="7.47" height="7.47" transform="translate(255.528 51.464)"/><rect class="c" width="7.47" height="7.47" transform="translate(265.736 51.464)"/><rect class="c" width="7.47" height="7.47" transform="translate(275.947 51.464)"/><rect class="c" width="7.47" height="7.47" transform="translate(286.155 51.464)"/><rect class="b" width="7.47" height="7.47" transform="translate(30.908 60.926)"/><rect class="b" width="7.47" height="7.47" transform="translate(41.119 60.926)"/><rect class="b" width="7.47" height="7.47" transform="translate(51.327 60.926)"/><rect class="b" width="7.47" height="7.47" transform="translate(61.538 60.926)"/><rect class="c" width="7.47" height="7.47" transform="translate(71.749 60.926)"/><rect class="d" width="7.47" height="7.47" transform="translate(81.957 60.926)"/><rect class="d" width="7.47" height="7.47" transform="translate(92.168 60.926)"/><rect class="b" width="7.47" height="7.47" transform="translate(102.377 60.926)"/><rect class="b" width="7.47" height="7.47" transform="translate(112.588 60.926)"/><rect class="e" width="7.47" height="7.47" transform="translate(122.799 60.926)"/><rect class="e" width="7.47" height="7.47" transform="translate(133.007 60.926)"/><rect class="c" width="7.47" height="7.47" transform="translate(143.218 60.926)"/><rect class="b" width="7.47" height="7.47" transform="translate(153.426 60.926)"/><rect class="e" width="7.47" height="7.47" transform="translate(163.637 60.926)"/><rect class="e" width="7.47" height="7.47" transform="translate(173.848 60.926)"/><rect class="e" width="7.47" height="7.47" transform="translate(184.056 60.926)"/><rect class="e" width="7.47" height="7.47" transform="translate(194.267 60.926)"/><rect class="b" width="7.47" height="7.47" transform="translate(204.478 60.926)"/><rect class="b" width="7.47" height="7.47" transform="translate(214.686 60.926)"/><rect class="b" width="7.47" height="7.47" transform="translate(224.897 60.926)"/><rect class="b" width="7.47" height="7.47" transform="translate(235.106 60.926)"/><rect class="d" width="7.47" height="7.47" transform="translate(245.317 60.926)"/><rect class="d" width="7.47" height="7.47" transform="translate(255.528 60.926)"/><rect class="e" width="7.47" height="7.47" transform="translate(265.736 60.926)"/><rect class="b" width="7.47" height="7.47" transform="translate(275.947 60.926)"/><rect class="c" width="7.47" height="7.47" transform="translate(286.155 60.926)"/><rect class="b" width="7.47" height="7.47" transform="translate(30.908 70.39)"/><rect class="b" width="7.47" height="7.47" transform="translate(41.119 70.39)"/><rect class="e" width="7.47" height="7.47" transform="translate(51.327 70.39)"/><rect class="b" width="7.47" height="7.47" transform="translate(61.538 70.39)"/><rect class="b" width="7.47" height="7.47" transform="translate(71.749 70.39)"/><rect class="d" width="7.47" height="7.47" transform="translate(81.957 70.39)"/><rect class="d" width="7.47" height="7.47" transform="translate(92.168 70.39)"/><rect class="b" width="7.47" height="7.47" transform="translate(102.377 70.39)"/><rect class="b" width="7.47" height="7.47" transform="translate(112.588 70.39)"/><rect class="e" width="7.47" height="7.47" transform="translate(122.799 70.39)"/><rect class="c" width="7.47" height="7.47" transform="translate(133.007 70.39)"/><rect class="b" width="7.47" height="7.47" transform="translate(143.218 70.39)"/><rect class="c" width="7.47" height="7.47" transform="translate(153.426 70.39)"/><rect class="c" width="7.47" height="7.47" transform="translate(163.637 70.39)"/><rect class="c" width="7.47" height="7.47" transform="translate(173.848 70.39)"/><rect class="b" width="7.47" height="7.47" transform="translate(184.056 70.39)"/><rect class="c" width="7.47" height="7.47" transform="translate(194.267 70.39)"/><rect class="b" width="7.47" height="7.47" transform="translate(204.478 70.39)"/><rect class="b" width="7.47" height="7.47" transform="translate(214.686 70.39)"/><rect class="b" width="7.47" height="7.47" transform="translate(224.897 70.39)"/><rect class="b" width="7.47" height="7.47" transform="translate(235.106 70.39)"/><rect class="b" width="7.47" height="7.47" transform="translate(245.317 70.39)"/><rect class="d" width="7.47" height="7.47" transform="translate(255.528 70.39)"/><rect class="b" width="7.47" height="7.47" transform="translate(265.736 70.39)"/><rect class="b" width="7.47" height="7.47" transform="translate(275.947 70.39)"/><rect class="c" width="7.47" height="7.47" transform="translate(286.155 70.39)"/><rect class="b" width="7.47" height="7.47" transform="translate(30.908 79.851)"/><rect class="b" width="7.47" height="7.47" transform="translate(41.119 79.851)"/><rect class="b" width="7.47" height="7.47" transform="translate(51.327 79.851)"/><rect class="e" width="7.47" height="7.47" transform="translate(61.538 79.851)"/><rect class="b" width="7.47" height="7.47" transform="translate(71.749 79.851)"/><rect class="b" width="7.47" height="7.47" transform="translate(81.957 79.851)"/><rect class="d" width="7.47" height="7.47" transform="translate(92.168 79.851)"/><rect class="b" width="7.47" height="7.47" transform="translate(102.377 79.851)"/><rect class="b" width="7.47" height="7.47" transform="translate(112.588 79.851)"/><rect class="b" width="7.47" height="7.47" transform="translate(122.799 79.851)"/><rect class="c" width="7.47" height="7.47" transform="translate(133.007 79.851)"/><rect class="b" width="7.47" height="7.47" transform="translate(143.218 79.851)"/><rect class="c" width="7.47" height="7.47" transform="translate(153.426 79.851)"/><rect class="c" width="7.47" height="7.47" transform="translate(163.637 79.851)"/><rect class="b" width="7.47" height="7.47" transform="translate(173.848 79.851)"/><rect class="b" width="7.47" height="7.47" transform="translate(184.056 79.851)"/><rect class="b" width="7.47" height="7.47" transform="translate(194.267 79.851)"/><rect class="b" width="7.47" height="7.47" transform="translate(204.478 79.851)"/><rect class="b" width="7.47" height="7.47" transform="translate(214.686 79.851)"/><rect class="b" width="7.47" height="7.47" transform="translate(224.897 79.851)"/><rect class="b" width="7.47" height="7.47" transform="translate(235.106 79.851)"/><rect class="b" width="7.47" height="7.47" transform="translate(245.317 79.851)"/><rect class="b" width="7.47" height="7.47" transform="translate(255.528 79.851)"/><rect class="b" width="7.47" height="7.47" transform="translate(265.736 79.851)"/><rect class="e" width="7.47" height="7.47" transform="translate(275.947 79.851)"/><rect class="c" width="7.47" height="7.47" transform="translate(286.155 79.851)"/><rect class="d" width="7.47" height="7.47" transform="translate(30.908 89.316)"/><rect class="d" width="7.47" height="7.47" transform="translate(41.119 89.316)"/><rect class="d" width="7.47" height="7.47" transform="translate(51.327 89.316)"/><rect class="d" width="7.47" height="7.47" transform="translate(61.538 89.316)"/><rect class="d" width="7.47" height="7.47" transform="translate(71.749 89.316)"/><rect class="b" width="7.47" height="7.47" transform="translate(81.957 89.316)"/><rect class="b" width="7.47" height="7.47" transform="translate(92.168 89.316)"/><rect class="b" width="7.47" height="7.47" transform="translate(102.377 89.316)"/><rect class="b" width="7.47" height="7.47" transform="translate(112.588 89.316)"/><rect class="b" width="7.47" height="7.47" transform="translate(122.799 89.316)"/><rect class="b" width="7.47" height="7.47" transform="translate(133.007 89.316)"/><rect class="c" width="7.47" height="7.47" transform="translate(143.218 89.316)"/><rect class="b" width="7.47" height="7.47" transform="translate(153.426 89.316)"/><rect class="b" width="7.47" height="7.47" transform="translate(163.637 89.316)"/><rect class="b" width="7.47" height="7.47" transform="translate(173.848 89.316)"/><rect class="c" width="7.47" height="7.47" transform="translate(184.056 89.316)"/><rect class="b" width="7.47" height="7.47" transform="translate(194.267 89.316)"/><rect class="b" width="7.47" height="7.47" transform="translate(204.478 89.316)"/><rect class="b" width="7.47" height="7.47" transform="translate(214.686 89.316)"/><rect class="b" width="7.47" height="7.47" transform="translate(224.897 89.316)"/><rect class="b" width="7.47" height="7.47" transform="translate(235.106 89.316)"/><rect class="b" width="7.47" height="7.47" transform="translate(245.317 89.316)"/><rect class="b" width="7.47" height="7.47" transform="translate(255.528 89.316)"/><rect class="b" width="7.47" height="7.47" transform="translate(265.736 89.316)"/><rect class="b" width="7.47" height="7.47" transform="translate(275.947 89.316)"/><rect class="c" width="7.47" height="7.47" transform="translate(286.155 89.316)"/><circle class="f" cx="10.211" cy="10.211" r="10.211" transform="translate(204.88 96.376)"/><path class="g" d="M760.078,441.989q1.528,6.671,2.594,13.441a7.829,7.829,0,0,1-.082,4.024,13.9,13.9,0,0,1-1.886,2.808,3.57,3.57,0,0,0-.747,3.171,3.676,3.676,0,0,0,2.65,1.939c3.151.849,6.51.231,9.646-.688a15.6,15.6,0,0,0,4.044-1.675,15.131,15.131,0,0,0,3.42-3.221c4.571-5.543,7.564-12.2,10.381-18.809a11.456,11.456,0,0,1-9.7-3.906c-1.154-1.356-2-3.245-1.35-4.9-1.906,1.045-4.17,1.116-6.223,1.83a22.108,22.108,0,0,0-3.66,1.8q-2.1,1.215-4.182,2.477C763.4,441.233,761.92,442.082,760.078,441.989Z" transform="translate(-545.518 -348.392)"/><path class="f" d="M727.36,464.29c-1.789,3.482-4.117,6.829-7.441,8.9s-7.8,2.635-11.128.586a31.724,31.724,0,0,1-4.313-3.807c-1.432-1.283-3.221-2.381-5.145-2.214-2.12.184-3.78,1.839-5.2,3.423a40.679,40.679,0,0,0-5.763,7.766c-2.928,5.476-3.622,11.877-3.493,18.085s1.028,12.384,1.048,18.592c.029,7.637-1.265,15.213-2.574,22.735,12.035-1.482,24.086,1.757,36.147,2.984a221.637,221.637,0,0,0,23.257.756,7.041,7.041,0,0,0,3.953-.791,5.33,5.33,0,0,0,1.637-1.944,18.6,18.6,0,0,0,1.8-6.46,130.789,130.789,0,0,0,.8-17.008c.053-13.763.1-27.576-1.646-41.231a38.868,38.868,0,0,0-2.269-9.877,15.5,15.5,0,0,0-6.331-7.716c-1.889-1.083-6.267-2.969-8.492-1.877C729.711,456.413,728.557,461.959,727.36,464.29Z" transform="translate(-491.443 -363.027)"/><path class="h" d="M830.512,497.34c-.454-8.492-2.3-17.555,1.631-25.093.966-1.851-2.5-4.161-1.429-5.953a26.97,26.97,0,0,0,2.946-7.007,5.285,5.285,0,0,0,.19-2.592c-.389-1.549-1.921-2.471-3.221-3.414-1.435-1.042-2.173-4.22-2.635-5.939s3.681.351,5.347-.261c2.313-.846,5.253-.313,7.561.545a12.62,12.62,0,0,0,4.062.551,53.512,53.512,0,0,0,7.992-.19,19.87,19.87,0,0,1,3.576-.307c3.048.173,5.7,2.258,7.5,4.723s2.952,5.338,4.431,8.009c1.233,2.226,2.7,4.328,3.754,6.644a40.9,40.9,0,0,1,2.1,6.442l1.5,5.62a7.494,7.494,0,0,1,.369,2.492,7.072,7.072,0,0,1-.879,2.536,48.059,48.059,0,0,1-5.467,8.343c-3.16,3.874-7,7.368-8.873,12.006a30.325,30.325,0,0,0-1.511,5.643,207.315,207.315,0,0,0-3.192,23.178,51.011,51.011,0,0,0-10.694-3.576,52.013,52.013,0,0,0-5.564-.878c-1.637-.17-3.748.152-5.306-.293-2.606-.741-2.893-5.148-3.289-7.456a68.078,68.078,0,0,1-.782-11.128C830.606,505.762,830.737,501.548,830.512,497.34Z" transform="translate(-593.705 -357.212)"/><path class="h" d="M580.171,555.993c1.233,7.028,2.592,14.076,5.271,20.68-.067.064-.135.123-.2.181-.237.2-.483.392-.741.586a9.849,9.849,0,0,0-1.757,1.329,2.34,2.34,0,0,0-.439.718,1.6,1.6,0,0,0,0,1.309,10.38,10.38,0,0,1-4.586.369,6.016,6.016,0,0,0-3.742.741c-1.505,1.037-1.959,3.028-2.2,4.838q-.135.99-.231,1.982-.094.923-.152,1.851a55.253,55.253,0,0,0-.056,6.15q.024.562.062,1.125c-4.785-.114-9.145-2.609-13.271-5.034a7.322,7.322,0,0,1-2.527-2.05,4.626,4.626,0,0,1-.676-3.013,3.339,3.339,0,0,1,.047-.445,12.172,12.172,0,0,1,.67-2.542,31.4,31.4,0,0,1,5.62-9.561,12.157,12.157,0,0,0,2.717-3.959c.214-.671.293-1.382.51-2.05.972-2.893,4.48-4.261,5.681-7.069a21.447,21.447,0,0,1,.791-2.05,5.166,5.166,0,0,1,1.244-1.391c.214-.179.436-.351.656-.524q3.086-2.419,5.947-5.11.533-.5,1.054-1.013A17.419,17.419,0,0,0,580.171,555.993Z" transform="translate(-400.598 -431.746)"/><path class="h" d="M670.017,479.151c-.422.445-.878.864-1.327,1.28l-.12.108-.474.439a11.424,11.424,0,0,0-2.211,2.574l-.05.082c-1.493,2.673-.94,5.965-.524,9a76.584,76.584,0,0,1,.694,11.42c-.076,5.271-.7,10.507-.709,15.772q0,1.792.079,3.581c.085,1.941.231,3.88.407,5.818.19,2.126.419,4.249.633,6.372.17,1.643.331,3.283.466,4.922.067.849.132,1.7.185,2.545.062,1,.111,1.994.141,2.99h0c.021.633.032,1.262.032,1.895v1.075q0,1.028-.056,2.05-.059,1.315-.179,2.636a4.273,4.273,0,0,1-.925,2.676c-.041.041-.085.079-.129.117l-.949-.117a97.434,97.434,0,0,0-19.708-.351c.143-.99.275-1.977.4-2.969.059-.469.117-.94.173-1.412q.1-.808.185-1.616.1-.879.188-1.757.228-2.264.4-4.53.255-3.306.387-6.624.064-1.584.1-3.171.05-1.968.047-3.939,0-1.915-.032-3.836c0-.422-.018-.843-.053-1.262a7.99,7.99,0,0,0-.155-1.121,14.611,14.611,0,0,0-.878-2.483c-.064-.152-.126-.293-.187-.454-.035-.079-.067-.161-.1-.24a21.9,21.9,0,0,0,4.041-5.493c1.871-3.189,3.786-6.518,4.1-10.2s-1.517-7.822-5.037-8.946a24.476,24.476,0,0,0-2.958-.548,12.992,12.992,0,0,1-3.95-1.2q-.878.9-1.757,1.772a6.486,6.486,0,0,1,.635-2.551l.416.021a.791.791,0,0,1-.047-.293,1.539,1.539,0,0,1,.679-1.06c1.379-1.171,3.549-1.432,4.419-3.016a22.008,22.008,0,0,0,.717-2.135c.84-1.971,3.253-2.7,4.706-4.272s1.816-3.807,2.99-5.564a8.38,8.38,0,0,1,3.514-2.928c.117-.056.237-.111.357-.161a20.277,20.277,0,0,1,7.836-1.271,16.524,16.524,0,0,1,4.756.524,1.557,1.557,0,0,1,.542.331C673.054,475.066,671,478.108,670.017,479.151Z" transform="translate(-460.936 -375.688)"/><path class="h" d="M629.481,540.862a17.828,17.828,0,0,1,13.687,1.426,12.947,12.947,0,0,1,5.16,4.914c1.742,3.163,1.666,6.975,1.543,10.586a12.916,12.916,0,0,1-.937,5.3,10.78,10.78,0,0,1-4.436,4.22,12.369,12.369,0,0,1-3.608,1.561,15.477,15.477,0,0,1-5.994-.293c-2.155-.4-4.469-.878-5.965-2.483a10.188,10.188,0,0,1-1.833-3.323q-1.022-2.562-2.05-5.119c-1.186-2.961-1.587-5.423-.021-8.308.712-1.315,1.581-2.545,2.284-3.868C627.663,544.8,628.922,541.035,629.481,540.862Z" transform="translate(-449.472 -423.306)"/><path class="i" d="M408.184,673.879v8.756a48.994,48.994,0,0,1-18.955,3.748H310.255c-.041.041-.085.079-.129.117l-.949-.117H168.7a61.193,61.193,0,0,1-31.667-8.6V664.418l67.562-7.8h.053l39.345,3.332,10.182.879,5.289.448,10.946.928,5.631.477,8.2.7,1.154.1,5.909.5,8.018.659,11.274.955,18.794,1.6,13.221,1.121,21.711,1.842,4.129.348.445.038.387.032,5.453.463,5.985.51.694.059Z" transform="translate(-105.103 -505.701)"/><path class="j" d="M551.6,538.221,466.933,523.77l-3.283,16.6,38.812,4.647,11.95,1.5,32.873-6.475Z" transform="translate(-327.879 -370.365)"/><path class="j" d="M642.33,720.621l42.42-7.974a1.464,1.464,0,0,1,1.739,1.444h0a1.464,1.464,0,0,1-1.2,1.444l-41.427,7.757Z" transform="translate(-462.435 -545.303)"/><path class="k" d="M625.444,640.616a10.945,10.945,0,0,0,3.848-.917,36.228,36.228,0,0,0,3.959-2.911,11.792,11.792,0,0,1,10.387-1.148,16.731,16.731,0,0,1,8.267,6.709c1.326,2.006,2.322,4.565,1.385,6.779a8.931,8.931,0,0,1-1.207,1.886l-2.442,3.192a8.482,8.482,0,0,1-1.657,1.784,7.041,7.041,0,0,1-3.168,1.1c-2.972.433-6,.187-8.993.387-5.145.343-10.17,2-15.327,1.944a46.194,46.194,0,0,1-8.785-1.227l-12.817-2.636c-2.231-.457-4.753-1.125-5.8-3.148a7.3,7.3,0,0,1-.615-2.99c-.152-2.823,0-5.962,1.956-8,1.839-1.909,4.747-2.512,6.943-3.924,2.688-1.731,3.576-1.171,6.41.129A35.142,35.142,0,0,0,625.444,640.616Z" transform="translate(-427.147 -490.374)"/><path class="l" d="M625.444,640.616a10.945,10.945,0,0,0,3.848-.917,36.228,36.228,0,0,0,3.959-2.911,11.792,11.792,0,0,1,10.387-1.148,16.731,16.731,0,0,1,8.267,6.709c1.326,2.006,2.322,4.565,1.385,6.779a8.931,8.931,0,0,1-1.207,1.886l-2.442,3.192a8.482,8.482,0,0,1-1.657,1.784,7.041,7.041,0,0,1-3.168,1.1c-2.972.433-6,.187-8.993.387-5.145.343-10.17,2-15.327,1.944a46.194,46.194,0,0,1-8.785-1.227l-12.817-2.636c-2.231-.457-4.753-1.125-5.8-3.148a7.3,7.3,0,0,1-.615-2.99c-.152-2.823,0-5.962,1.956-8,1.839-1.909,4.747-2.512,6.943-3.924,2.688-1.731,3.576-1.171,6.41.129A35.142,35.142,0,0,0,625.444,640.616Z" transform="translate(-427.147 -490.374)"/><path class="g" d="M697.829,636.98a75.946,75.946,0,0,1-10.978,3.617c-6.313,1.391-12.92,1.171-19.183,2.761-3.309.843-6.6,2.2-10,1.927a29.965,29.965,0,0,1-4.466-.937c-8.308-2.05-17.751-1.385-24.5,3.886a30.493,30.493,0,0,0-5.909,6.442,4.3,4.3,0,0,0,1.731,6.407,25.364,25.364,0,0,0,8.31,2.217,50.534,50.534,0,0,0,11.532-.75c5.675-.805,11.353-1.613,17.014-2.518,2.032-.325,4.065-.662,6.108-.919,14.709-1.859,29.684.4,44.431-1.151a13.574,13.574,0,0,0,4.363-1c3.432-1.611,5.13-5.857,4.422-9.587a13.421,13.421,0,0,0-6.735-8.735,29.647,29.647,0,0,0-8.805-2.928C702.315,635.048,700.576,635.926,697.829,636.98Z" transform="translate(-448.061 -490.753)"/><path class="m" d="M896.032,534.282c1.622,2.126,1.968,4.978,1.792,7.64s-.808,5.294-.9,7.968c-.129,3.666.755,7.321.606,10.975a31.574,31.574,0,0,1-1.429,7.517c-.846,2.9-2.07,6.009-4.744,7.4-3.549,1.848-10.993.808-14.727,2.255.34-2.117,3.6-5.183,3.936-7.3a13.63,13.63,0,0,0,.22-4.436,9.811,9.811,0,0,0-2.723-4.914,14.37,14.37,0,0,0-7.751-4.392c-2.972-.539-10.249-.1-12.627,1.78-.293-1.939,5.154-3.807,7.069-4.226.955-.214,2.05-.094,2.814-.7,1.464-1.148.4-3.435.471-5.271.056-1.464.911-2.805,1.083-4.27.293-2.343-1.236-4.729-.635-7.028a18.2,18.2,0,0,1,1.06-2.4c1.042-2.474.586-5.3.029-7.927-.346-1.652-.682-3.514.237-4.923.852-1.315,3.271,3.367,4.82,3.151,5.116-.718,9.745-4.51,13.877-1.406,2.105,1.581,2.381,3.221,3.221,5.479C892.547,531.4,894.664,532.5,896.032,534.282Z" transform="translate(-614.717 -410.356)"/><path class="h" d="M899.032,529.5c1.622,2.126,1.968,4.978,1.792,7.64s-.808,5.294-.9,7.968c-.129,3.666.755,7.321.606,10.975A31.577,31.577,0,0,1,899.1,563.6c-.846,2.9-2.07,6.009-4.744,7.4-3.549,1.848-10.993.808-14.726,2.255.34-2.117,3.6-5.183,3.936-7.3a13.638,13.638,0,0,0,.219-4.436,9.813,9.813,0,0,0-2.723-4.914,14.37,14.37,0,0,0-7.751-4.392c-2.972-.539-10.249-.1-12.627,1.78-.293-1.939,5.154-3.807,7.069-4.226.955-.214,2.05-.094,2.814-.7,1.464-1.148.4-3.435.471-5.271.056-1.464.911-2.805,1.083-4.27.293-2.343-1.236-4.729-.635-7.028a18.209,18.209,0,0,1,1.06-2.4c1.042-2.474.586-5.3.029-7.927-.346-1.652-.682-3.514.237-4.923.852-1.315,2.518-1.812,4.067-2.032a20.035,20.035,0,0,1,14.642,3.778c2.105,1.581,2.381,3.221,3.221,5.479C895.547,526.619,897.664,527.72,899.032,529.5Z" transform="translate(-616.839 -405.575)"/><path class="j" d="M329.69,493.2l15.921,58.842a3.675,3.675,0,0,0,3.195,2.7l71.662,6.884a3.672,3.672,0,0,0,3.918-4.533l-17.435-70.977a3.672,3.672,0,0,0-3.842-2.785l-70.159,5.248a3.672,3.672,0,0,0-3.259,4.624Z" transform="translate(-241.255 -383.145)"/><ellipse class="n" cx="7.877" cy="7.98" rx="7.877" ry="7.98" transform="translate(222.613 105.574)"/><path class="n" d="M827.865,479.006s1.66,4.937-3.239,7.013l-.627,1.1,3.069,3.028s3.784-6.9,3.374-9.353C830.442,480.789,829.857,478.3,827.865,479.006Z" transform="translate(-590.906 -380.009)"/><circle class="c" cx="7.596" cy="7.596" r="7.596" transform="translate(223.799 106.341)"/><path class="c" d="M822.836,452.351l-1.207-1.991-1.757-.249c.375-6.556-1.326-8.51-1.326-8.51l-.4-.038-1.722-.167-3.239-3.362v-.955c4.551.542,7.066,2.7,8.425,5.236C824.016,446.761,822.836,452.351,822.836,452.351Z" transform="translate(-583.262 -350.45)"/><path class="o" d="M818.2,442.662v1.206l-1.722-.167-3.239-3.362S818.25,441.462,818.2,442.662Z" transform="translate(-583.297 -352.755)"/><path class="o" d="M843.216,465.024l-1.206-1.991V455C844.4,459.434,843.216,465.024,843.216,465.024Z" transform="translate(-603.642 -363.122)"/><ellipse class="n" cx="4.226" cy="7.707" rx="4.226" ry="7.707" transform="translate(205.993 105.823) rotate(-30)"/><path class="c" d="M741.1,501.548c2.129,3.687,4.741,6.149,2.72,7.321s-7.907.586-10.035-3.1-.2-8.785,1.824-9.956S738.964,497.853,741.1,501.548Z" transform="translate(-526.45 -391.808)"/><path class="m" d="M726.295,378.132c0,11.781-8.062,23.134-19.842,23.134a21.333,21.333,0,0,1,0-42.666C718.233,358.612,726.295,366.348,726.295,378.132Z" transform="translate(-492.695 -294.951)"/><circle class="g" cx="21.333" cy="21.333" r="21.333" transform="translate(192.425 63.075)"/><path class="p" d="M683.048,330.093c2.539.934,4.041,3.558,6.319,5.019,3.221,2.05,7.414,1.52,11.092.507,2.05-.559,4.193-1.242,6.211-.621a1.757,1.757,0,0,0,.946.135c.439-.126.656-.612.8-1.045a28.919,28.919,0,0,0-2.393-22.744,14.7,14.7,0,0,0-3.742-4.723,15.612,15.612,0,0,0-4.252-2.146,42.459,42.459,0,0,0-8.457-2.088,5.252,5.252,0,0,0-1.543-.05,6.463,6.463,0,0,0-1.968.835,20.141,20.141,0,0,1-8.744,2.375c-4.1.155-8.785-.811-11.945,1.818-3.807,3.154-2.858,9.306-5.327,13.587-1.634,2.832-4.785,4.887-5.3,8.111a7.487,7.487,0,0,0,.185,2.949,12,12,0,0,0,11.128,8.893,4.223,4.223,0,0,0,2.272-.466,5.137,5.137,0,0,0,1.2-1.139C672.878,335.329,676.714,327.762,683.048,330.093Z" transform="translate(-471.164 -255.138)"/><path class="m" d="M708.395,385.85c-.143.433-.36.92-.8,1.045a1.757,1.757,0,0,1-.946-.135c-2.018-.621-4.173.061-6.208.621-3.681,1.013-7.883,1.555-11.092-.507-2.281-1.464-3.78-4.1-6.322-5.019-6.334-2.343-10.17,5.236-13.532,9.207a5.139,5.139,0,0,1-1.2,1.139,4.223,4.223,0,0,1-2.272.466,12.03,12.03,0,0,1-11.128-8.893c-.067-.293-.126-.586-.17-.879a.142.142,0,0,1-.015.076,7.486,7.486,0,0,0,.185,2.949,12,12,0,0,0,11.128,8.893,4.222,4.222,0,0,0,2.272-.466,5.138,5.138,0,0,0,1.2-1.139c3.362-3.971,7.2-11.538,13.532-9.207,2.542.934,4.041,3.558,6.322,5.019,3.221,2.05,7.412,1.52,11.092.507,2.05-.559,4.191-1.242,6.208-.621a1.757,1.757,0,0,0,.946.135c.439-.126.656-.612.8-1.045a26.44,26.44,0,0,0,1.312-9.447A26.007,26.007,0,0,1,708.395,385.85Z" transform="translate(-471.143 -309.059)"/></g></svg>