<svg xmlns="http://www.w3.org/2000/svg" xmlns:xlink="http://www.w3.org/1999/xlink" width="335" height="214.809" viewBox="0 0 335 214.809"><defs><style>.a,.c,.i{fill:#0edeff;}.a,.b,.k{opacity:0.1;}.d{fill:#fff;}.e{fill:#3f3d56;}.f{fill:#fa5959;}.f,.g,.h{opacity:0.8;}.g{fill:#fed253;}.h{fill:#8ccf4d;}.i,.n{opacity:0.2;}.j{fill:none;stroke:#3f3d56;stroke-miterlimit:10;}.l{fill:#46455b;}.m{fill:#a8a8a8;}.o{fill:url(#a);}.p{fill:#65617d;}.q{opacity:0.05;}.r{fill:#ffc4c4;}.s{fill:#e3e8f4;}.t{fill:#ee8e9e;}.u{fill:#e6e8ec;}.v{fill:#565387;}</style><linearGradient id="a" x1="0.5" y1="1" x2="0.5" gradientUnits="objectBoundingBox"><stop offset="0" stop-color="gray" stop-opacity="0.251"/><stop offset="0.54" stop-color="gray" stop-opacity="0.122"/><stop offset="1" stop-color="gray" stop-opacity="0.102"/></linearGradient></defs><g transform="translate(0.035)"><ellipse class="a" cx="58.27" cy="13.05" rx="58.27" ry="13.05" transform="translate(197.665 188.709)"/><g class="b" transform="translate(189.662 8.13)"><path class="c" d="M673.12,122.89c0,47.375,29.721,85.708,66.464,85.708" transform="translate(-673.12 -122.89)"/></g><path class="a" d="M238.49,168.107c-21.472.164-42.1-4.689-61.83-10.1s-39.293-11.49-60.33-13.973c-13.542-1.6-28.953-1.347-39.6,4.856-10.243,5.967-13.275,15.748-14.771,24.774-1.126,6.792-1.675,13.918,2.288,20.1,2.737,4.288,7.466,7.809,10.8,11.894,11.611,14.212,4.41,32.5-7.1,47.2-5.4,6.892-11.715,13.505-15.812,20.783s-5.821,15.508-1.757,22.64c4.03,7.065,13.214,12.14,23.092,15.614,20.07,7.011,43.463,8.407,66.239,8.85,50.422.986,100.973-2.012,151.389-5.008,18.655-1.111,37.4-2.228,55.684-5.2,10.155-1.654,20.613-4.079,27.842-9.29,9.181-6.616,11.132-17.332,4.552-24.986-11.038-12.835-40.364-15.077-48.255-28.992-4.343-7.66-.476-16.5,5.159-23.951,12.121-15.976,32.883-30.349,33.384-48.139.334-12.215-10.319-24.061-26.306-29.265-16.768-5.463-39.693-3.882-51.547,6.558C279.407,163.212,257.452,167.965,238.49,168.107Z" transform="translate(-48.1 -128.645)"/><path class="d" d="M458.762,105.566V262.9c0,4.68-4.516,8.5-10.088,8.5H235.195c-5.572,0-10.085-3.806-10.085-8.5V105.566c0-4.689,4.513-9.466,10.085-9.466l213.452.519C454.21,96.619,458.762,100.877,458.762,105.566Z" transform="translate(-171.414 -96.1)"/><path class="e" d="M458.762,105.614V112.9H225.11v-7.284a9.514,9.514,0,0,1,9.511-9.514H449.233A9.517,9.517,0,0,1,458.762,105.614Z" transform="translate(-171.414 -96.1)"/><circle class="f" cx="3.363" cy="3.363" r="3.363" transform="translate(61.651 5.035)"/><circle class="g" cx="3.363" cy="3.363" r="3.363" transform="translate(71.432 5.035)"/><circle class="h" cx="3.363" cy="3.363" r="3.363" transform="translate(81.214 5.035)"/><rect class="i" width="21.247" height="10.082" rx="5.041" transform="translate(138.67 51.805)"/><rect class="i" width="21.247" height="10.082" rx="5.041" transform="translate(181.717 51.805)"/><path class="j" d="M491.81,202.87l21.269,27.772,21.909-27.9" transform="translate(-342.576 -141.211)"/><rect class="k" width="32.482" height="15.414" rx="7.707" transform="translate(154.26 88.543)"/><rect class="c" width="31.162" height="14.789" rx="7.394" transform="translate(154.922 88.858)"/><line class="j" x1="0.276" y1="9.818" transform="translate(149.104 41.988)"/><path class="j" d="M616.427,139.93l-12.485,9.338L590.81,139.93" transform="translate(-411.53 -97.463)"/><rect class="i" width="21.247" height="10.082" rx="5.041" transform="translate(138.552 32.382)"/><rect class="i" width="21.247" height="10.082" rx="5.041" transform="translate(194.272 32.382)"/><rect class="i" width="21.247" height="10.082" rx="5.041" transform="translate(168.658 32.382)"/><line class="j" x1="0.082" y2="26.859" transform="translate(170.421 103.644)"/><path class="j" d="M609.53,558.59Z" transform="translate(-439.167 -418.23)"/><path class="j" d="M462.42,471.776l30.045-9.3,30.167,9.229" transform="translate(-322.105 -322.123)"/><rect class="i" width="21.247" height="10.082" rx="5.041" transform="translate(159.799 130.503)"/><rect class="i" width="21.247" height="10.082" rx="5.041" transform="translate(262.611 69.993) rotate(90)"/><rect class="i" width="21.247" height="10.082" rx="5.041" transform="translate(252.529 124.512) rotate(-90)"/><rect class="i" width="21.247" height="10.082" rx="5.041" transform="translate(189.905 149.516)"/><rect class="i" width="21.247" height="10.082" rx="5.041" transform="translate(150.94 159.601) rotate(180)"/><rect class="i" width="21.247" height="10.082" rx="5.041" transform="translate(181.574 159.601) rotate(180)"/><line class="j" x2="9.457" y2="16.537" transform="translate(243.07 97.253)"/><line class="j" x2="9.927" transform="translate(223.073 97.049)"/><line class="j" x2="27.095" y2="0.798" transform="translate(186.084 96.251)"/><line class="j" x1="9.411" y2="16.564" transform="translate(243.115 80.616)"/><rect class="i" width="21.247" height="10.082" rx="5.041" transform="translate(223.261 86.364) rotate(90)"/><rect class="i" width="21.247" height="10.082" rx="5.041" transform="translate(243.07 86.628) rotate(90)"/><rect class="i" width="21.247" height="10.082" rx="5.041" transform="translate(88.476 69.99) rotate(90)"/><rect class="i" width="21.247" height="10.082" rx="5.041" transform="translate(78.394 124.512) rotate(-90)"/><line class="j" x1="9.46" y2="16.537" transform="translate(88.476 97.253)"/><line class="j" x1="9.924" transform="translate(108.005 97.049)"/><line class="j" x1="27.095" y2="0.798" transform="translate(127.826 96.251)"/><line class="j" x2="9.411" y2="16.564" transform="translate(88.476 80.616)"/><rect class="i" width="21.247" height="10.082" rx="5.041" transform="translate(127.826 86.367) rotate(90)"/><rect class="i" width="21.247" height="10.082" rx="5.041" transform="translate(108.018 86.628) rotate(90)"/><path class="l" d="M156.12,598c0,15.247,9.566,27.587,21.387,27.587" transform="translate(-123.361 -445.679)"/><path class="c" d="M226.59,624.867c0-15.42,10.677-27.9,23.869-27.9" transform="translate(-172.445 -444.962)"/><path class="c" d="M181.66,602.55c0,14.482,6.1,26.2,13.636,26.2" transform="translate(-141.15 -448.848)"/><path class="l" d="M226.59,607.085c0-19.7,12.34-35.645,27.587-35.645" transform="translate(-172.445 -427.18)"/><ellipse class="a" cx="5.317" cy="0.898" rx="5.317" ry="0.898" transform="translate(47.9 183.377)"/><path class="m" d="M211.77,685.769s3.035-.094,3.945-.744,4.665-1.43,4.892-.385,4.552,5.193,1.132,5.22-7.957-.534-8.868-1.09S211.77,685.769,211.77,685.769Z" transform="translate(-162.122 -505.67)"/><path class="n" d="M221.8,693.25c-3.423.027-7.954-.531-8.868-1.089-.695-.422-.971-1.939-1.065-2.64h-.1s.191,2.446,1.1,3,5.445,1.117,8.868,1.09c.989,0,1.329-.361,1.311-.88C222.917,693.05,222.541,693.244,221.8,693.25Z" transform="translate(-162.122 -509.424)"/><path class="o" d="M847.56,590.226l-8.4-12.176s-.158-3.014-.707-3.721-.118-2.27-.118-2.27.589-.862.079-.938-.079-2-.079-2l-.04-3.056s.471-2.935.079-3.642a1.159,1.159,0,0,1,.039-1.253s.47-1.684,0-2.124-.355-3.053-.237-5.126a7.8,7.8,0,0,0-.823-3.563c0-.313-3.1-3.369-3.1-3.642s-1.96-1.408-3.138-1.724-1.766-.546-1.727-.7-1.845-.783-1.845-.783a3.7,3.7,0,0,1-2.276-.938c-.628-.822-2.549-1.062-2.6-1.068a1.051,1.051,0,0,0-.036-.164l-.036-.176c.149-.249.285-.5.41-.768l.109-.24a3.338,3.338,0,0,0,1.93-.607,2.64,2.64,0,0,0,.941-1.879,4.128,4.128,0,0,0-.458-2.085,3.536,3.536,0,0,1-.677-2.2c.076-.331.273-.607.376-.944a2.486,2.486,0,0,0-.282-1.854c-.3-.567-.71-1.068-1.041-1.621a6.294,6.294,0,0,1-.828-2.288,3.607,3.607,0,0,0-.3-1.247,2.311,2.311,0,0,0-.689-.695,6.874,6.874,0,0,0-4.218-1.278,20.506,20.506,0,0,1-3.193.194,11.809,11.809,0,0,1-1.866-.489,4.821,4.821,0,0,0-3.979.2c-1.144.753-1.6,2.234-2.379,3.393a26.944,26.944,0,0,0-2.215,2.971.1.1,0,0,1,.015-.064,3.742,3.742,0,0,0-.3.792,5.627,5.627,0,0,0,.173,2.595,1.832,1.832,0,0,0,.634,1.159,3.6,3.6,0,0,0,1.372.27c-.018.076-.036.149-.052.225a8.953,8.953,0,0,0,6.222,10.455v.237a6.013,6.013,0,0,1-.042.674h0s-3.945-.81-5-.264-3.141.98-3.454,1.293-1.1.079-1.806,1.918-.783,3.721-1.687,4.58-1.372,1.451-1.411,2.076.115.783-.237.98-.862,1.017-.707,1.329a1.113,1.113,0,0,1-.431,1.174,1.308,1.308,0,0,0-.549,1.174s-.237.862-.786,1.056-.91,1.49-.91,1.49l-1.778,2.045-3.53-3.9a1.487,1.487,0,0,0-2.1-.106l-1.7,1.578a3.411,3.411,0,0,0-1.733,1.032,4.552,4.552,0,0,0-.91,1.335l-.947.856a2.4,2.4,0,0,0-.243,2.659l2.258,2.5v.021a3.946,3.946,0,0,0-2.185.889c-3.375,2.974-3.414,5.715-2.9,6.98s4.786,6.07,4.786,6.07a19.127,19.127,0,0,0,6.07,4.95h0l-.024.027c-.073.076-.143.158-.212.246l-.058.076-.055.076-.064.094-.049.076-.07.112a.612.612,0,0,1-.042.076c-.027.049-.055.1-.079.152l-.027.052c-.033.067-.064.14-.1.212a.355.355,0,0,0-.03.079c-.009.024-.042.1-.061.158l-.036.1c-.018.048-.033.1-.052.152s-.021.073-.033.112l-.045.17-.027.106c-.024.091-.042.185-.064.282l-.018.112a1.713,1.713,0,0,1-.033.2c-.009.07-.015.094-.021.143a.807.807,0,0,1-.024.194c-.024.067,0,.1-.015.149a1.1,1.1,0,0,0,0,.225v.137a3.23,3.23,0,0,1-.015.379c-.079,4.58.188,5.244.188,5.244a2.542,2.542,0,0,0,2.085,1.563,2.706,2.706,0,0,0,.671-.036c2.039-.352,6.828-1.174,8.516-.859a14.558,14.558,0,0,0,4.228-.343l.355-.07.243.78.777-.212.659.379.416.24c.774,2.625,3.918,1.73,3.918,1.73l.747.431,7.587.194a15.323,15.323,0,0,0,2.683,1.29,2.686,2.686,0,0,0,.379.082,17.475,17.475,0,0,0,2.109.039c.583,0,1.032-.039,1.032-.039s-.079-2.055-.188-4.358a62.858,62.858,0,0,0,7.014-.574c4.024-.71,5.709-4.4,6.331-6.367a18.385,18.385,0,0,1,.395,2.428,17.8,17.8,0,0,0,.628,2.124,7.183,7.183,0,0,0,.865,1.566c2.983-1.017,1.178-2.543.549-3.208s.431-1.214.431-1.214.825-.549.746-1.059-.118-1.056,2.549-1.017S847.56,590.226,847.56,590.226Zm-41.438-25a18.1,18.1,0,0,0,.744,3.268,4.361,4.361,0,0,1,.088,1.29c-1.581-.125-3.229-.194-3.229-.194a.376.376,0,0,1,.085.2l-.249-.058c-.115-.027-.237-.055-.361-.088l2.913-4.428Zm-5.766,9.18,2.731.434.231.036a9.185,9.185,0,0,0-.143,1.293c0,.039.061.088.149.146a3.524,3.524,0,0,0-.052.646,7.5,7.5,0,0,0,2.792,1.074c-.021.079-.042.152-.061.225h0c-1.3-.683-3.338-1-3.575-1.517s-7.165-2.922-7.165-2.922-.255-.137-.692-.346l1.821.346.5-.052a27.284,27.284,0,0,0,3.454.637Z" transform="translate(-557.383 -393.326)"/><path class="p" d="M861.424,716.747s-1.09,6.57-6.613,7.545-23.957.777-23.957.777-10.54-1.517-14.352-10.422-6.261-12.443-3-12.6,20.886,5.951,21.9,6.03S862.395,694.538,861.424,716.747Z" transform="translate(-580.178 -518.144)"/><path class="q" d="M861.424,716.747s-1.09,6.57-6.613,7.545-23.957.777-23.957.777-10.54-1.517-14.352-10.422-6.261-12.443-3-12.6,20.886,5.951,21.9,6.03S862.395,694.538,861.424,716.747Z" transform="translate(-580.178 -518.144)"/><path class="e" d="M811.544,751.744a2.525,2.525,0,0,0,2.064,1.554,2.664,2.664,0,0,0,.665-.036c2.024-.352,6.768-1.168,8.44-.856a14.524,14.524,0,0,0,4.194-.34c.88-.167,1.517-.322,1.517-.322s-1.554-5.159-1.751-5.329-7-4.249-7-4.249l-5.4-.376h0a2.85,2.85,0,0,0-1.821,1.074,5.767,5.767,0,0,0-1.089,3.672C811.271,751.083,811.544,751.744,811.544,751.744Z" transform="translate(-579.733 -545.831)"/><path class="q" d="M811.541,751.772a2.525,2.525,0,0,0,2.064,1.554,22.444,22.444,0,0,1-1.463-2.124l.027-3.772a6.643,6.643,0,0,1,2.124-5.6h-.021s-2.838.194-2.917,4.747S811.541,751.772,811.541,751.772Z" transform="translate(-579.731 -545.859)"/><path class="k" d="M881.812,720.333l5.017-3.927,7.891-7.778s-.853-.043-2.14-.1c-.3.2-1.214.844-1.25,1.624-.036.953-2.124.067-3.223.607s-6.4,7.369-7.338,7.32-1.672-.473-2.061.188l-.027.043Z" transform="translate(-626.633 -522.665)"/><path class="k" d="M815,742.861c.179.085.361.17.543.249,3.812,1.633,8.519,5.056,8.868,5.678a36.911,36.911,0,0,0,5.05,3.278c.88-.167,1.517-.322,1.517-.322s-1.554-5.159-1.751-5.329-7-4.249-7-4.249l-5.408-.376h0A2.85,2.85,0,0,0,815,742.861Z" transform="translate(-582.279 -545.831)"/><path class="p" d="M779.553,690.537c.507,1.244,4.747,6.027,4.747,6.027a18.581,18.581,0,0,0,6.495,5.135c3.812,1.633,8.516,5.056,8.868,5.678.225.4,3.263,2.231,5.4,3.487l.48.279,1.062.607.561.325s1.3-1.047,2.6-2.1,2.552-2.082,2.574-2.124c.036-.115.543-1.438.425-1.517-.061-.039-.328-.58-.816-1.214a5.538,5.538,0,0,0-1.982-1.639A5.623,5.623,0,0,1,807.4,700.8s-.17-.121-.428-.285a5.186,5.186,0,0,0-1.751-.78c-.856-.106-2.449-1.857-2.449-1.857a4.81,4.81,0,0,1-1.517-1.593c-.428-.892-6.44-5-7-5.381l14.622,9.393,3.5,2.249,5.02-3.927,7.891-7.778s-1.062-.052-2.6-.118c-3.839-.167-10.652-.428-11.514-.234a6.511,6.511,0,0,1-2.125.14,7.51,7.51,0,0,1-3.226-.589c-1.284-.677-3.308-1-3.542-1.5s-7.117-2.916-7.117-2.916-9.372-4.977-12.719-2.021S779.05,689.292,779.553,690.537Z" transform="translate(-557.427 -504.653)"/><path class="r" d="M879.67,588.1l1.214,4,1.557,9.026,5.715.388,1.657-2.731,1.651-2.731s1.029-3.642,1.769-7.174c.652-3.12,1.08-6.149.37-6.477-.631-.3-1.047-1.344-1.317-2.473-.033-.14-.067-.282-.094-.422a22.425,22.425,0,0,1-.379-2.9s-11.979-.622-10.319,4.319a7.835,7.835,0,0,1,.452,2.625,6.6,6.6,0,0,1-.043.668A5.6,5.6,0,0,1,879.67,588.1Z" transform="translate(-627.323 -430.758)"/><path class="s" d="M871.46,604.911l.431,6.8.971,5.8,1.09,2.683.971,14.683s9.378,1.083,11.66-.018a1.01,1.01,0,0,0,.413-.325c2.753-4.158,1.851-16.206,1.851-16.206l1.05-7.778-.7-4.036-1.69-.182-1.3-.137s-.3.361-.719.91c-1.153,1.518-3.275,4.516-3.132,5.766.194,1.712-.234,3.46-.911,3.733s-1.214.74-1.32.273a2.2,2.2,0,0,1-.118-1.244,10.287,10.287,0,0,0-.507-2.686,11.215,11.215,0,0,1-.971-3.384,3.959,3.959,0,0,0-.428-2.449c-.313-.273-.737-.543-.388-1.788s-1.533-3.657-1.533-3.657Z" transform="translate(-621.604 -448.236)"/><path class="k" d="M912.245,611.894l.392,11.63,2.246,1.244a1.033,1.033,0,0,0,.413-.322c2.753-4.161,1.851-16.209,1.851-16.209l1.05-7.778-.7-4.036-1.69-.182c.652-3.12,1.08-6.149.37-6.476-.631-.3-1.047-1.344-1.317-2.473h0l-1.214,8.228s.1.744.137,1.517a4.328,4.328,0,0,1-.1,1.448,4.833,4.833,0,0,0-.079,1.945,15.635,15.635,0,0,0-1.214,5.733C912.16,609.093,912.245,611.894,912.245,611.894Z" transform="translate(-650.001 -438.22)"/><path class="e" d="M915.388,586.68s1.961.243,2.583,1.062a3.646,3.646,0,0,0,2.255.932s1.866.607,1.821.777.543.391,1.709.7,3.114,1.439,3.114,1.712,3.086,3.3,3.086,3.618a7.734,7.734,0,0,1,.816,3.539c-.118,2.061-.234,4.668.234,5.1s0,2.1,0,2.1a1.147,1.147,0,0,0-.039,1.244c.388.7-.076,3.618-.076,3.618l.036,3.035s-.428,1.906.079,1.985-.079.935-.079.935-.428,1.554.118,2.255.7,3.693.7,3.693l8.322,12.1s.118,2.215-2.528,2.179-2.607.5-2.528,1.011-.738,1.05-.738,1.05-1.05.543-.428,1.214,2.41,2.179-.546,3.19a7.215,7.215,0,0,1-.856-1.557,17.61,17.61,0,0,1-.622-2.1s-.273-2.956-.816-3.338-.467-2.255-.467-2.255.78-1.517-.3-2.14-16.88-9.375-16.88-9.375l-.395-11.645s-.273-8.595,1.36-11.475a4.834,4.834,0,0,1,.079-1.945,10.045,10.045,0,0,0-.039-2.956Z" transform="translate(-650.498 -437.795)"/><path class="k" d="M854.823,601.026s-3.912-.807-4.962-.261-3.111.971-3.423,1.284-1.086.076-1.787,1.906-.777,3.693-1.672,4.552-1.363,1.439-1.4,2.061.118.777-.231.974-.856,1.011-.7,1.32,8.088,7.156,8.088,7.156a18.819,18.819,0,0,0,.74,3.269c.349.662-.388,9.76-1.165,10.385s5.25.564,5.25.564.27-5.973.5-6.282-.155-6.677-.155-6.677-.04-5.445.467-6.883.449-6.221.449-6.221.446-2.871.989-3.542S854.823,601.026,854.823,601.026Z" transform="translate(-600.121 -447.473)"/><path class="e" d="M854.421,600.639s-3.909-.8-4.959-.261-3.1.968-3.411,1.272-1.09.079-1.791,1.906-.777,3.7-1.672,4.552-1.36,1.439-1.4,2.061.115.777-.234.971-.856,1.011-.7,1.323,8.1,7.168,8.1,7.168a18.511,18.511,0,0,0,.741,3.266c.352.662-.392,9.763-1.168,10.385s5.25.565,5.25.565.273-5.97.507-6.282-.158-6.677-.158-6.677-.036-5.445.467-6.883.431-6.237.431-6.237.446-2.871.989-3.539S854.421,600.639,854.421,600.639Z" transform="translate(-599.849 -447.204)"/><path class="k" d="M885.323,580.851a7.841,7.841,0,0,1,.452,2.625,8.91,8.91,0,0,0,10.234-4.042,22.444,22.444,0,0,1-.379-2.9S883.65,575.91,885.323,580.851Z" transform="translate(-631.148 -430.709)"/><path class="r" d="M866.21,550.122a8.908,8.908,0,1,0,.194-1.851,8.907,8.907,0,0,0-.194,1.851Z" transform="translate(-617.948 -406.126)"/><path class="e" d="M829.463,638.49l-2.124.662a1.1,1.1,0,0,1-.428,1.165,1.3,1.3,0,0,0-.543,1.168s-.234.856-.777,1.05-.9,1.478-.9,1.478l-1.791,2.061s-.659.543-.543.816-.7.349-.7.349l.407,6.926,3.7.7,2.294-.234,1.867-.7,1.633-.974.74-1.906,3.266-4.977Z" transform="translate(-586.918 -473.881)"/><path class="t" d="M801.526,659.377s-4.747-6.847-8.285-3.15,1.439,9.684,2.607,9.49,6.728-.507,6.728-.507Z" transform="translate(-566.253 -485.472)"/><rect class="e" width="24.834" height="19.284" rx="1.54" transform="translate(224.905 159.957) rotate(27.04)"/><rect class="c" width="20.874" height="15.73" transform="translate(225.892 162.414) rotate(27.04)"/><circle class="u" cx="0.343" cy="0.343" r="0.343" transform="translate(221.27 168.7)"/><circle class="u" cx="0.564" cy="0.564" r="0.564" transform="translate(241.173 178.788)"/><path class="r" d="M813.28,668.325c-.036,5.135,10.58,6.221,10.58,6.221l2.713.431,1.214.194.507-5.02s-.555-.082-1.25-.243c-1.029-.24-2.361-.656-2.64-1.235C823.938,667.7,813.319,663.19,813.28,668.325Z" transform="translate(-581.081 -492.982)"/><path class="k" d="M866.85,548.321a1.035,1.035,0,0,1,.652.3c.3.319.3.883.707,1.077a.783.783,0,0,0,.464.055c1.035-.146,1.633-1.314,2.625-1.636a2.632,2.632,0,0,1,1.739.152,1.268,1.268,0,0,1,.577.367c.334.431.1,1.065.255,1.584.212.722,1.074,1.011,1.821,1.1a3.187,3.187,0,0,1,2.088.71,1.9,1.9,0,0,1,.37,1.517,1.185,1.185,0,0,0,0,.555c.206.586,1.214.5,1.478.036.194-.334.137-.607.589-.7a1.919,1.919,0,0,1,.953.164,7,7,0,0,0,2.461.376,8.907,8.907,0,1,0-16.774-5.639Z" transform="translate(-618.393 -406.177)"/><path class="e" d="M873.116,542.894a1.214,1.214,0,0,1,0-.558,1.9,1.9,0,0,0-.37-1.517,3.237,3.237,0,0,0-2.088-.71c-.747-.1-1.609-.382-1.821-1.1-.155-.519.079-1.153-.255-1.581a1.257,1.257,0,0,0-.577-.37,2.632,2.632,0,0,0-1.739-.152c-.992.322-1.59,1.49-2.625,1.636a.783.783,0,0,1-.464-.055c-.392-.194-.407-.759-.707-1.077-.473-.5-1.369-.176-1.948-.549a1.8,1.8,0,0,1-.628-1.15,5.606,5.606,0,0,1-.17-2.58c.337-1.448,1.63-2.428,2.455-3.675.771-1.15,1.214-2.607,2.358-3.372a4.7,4.7,0,0,1,3.945-.2,11.5,11.5,0,0,0,1.848.483,20.222,20.222,0,0,0,3.165-.191,6.816,6.816,0,0,1,4.179,1.269,2.319,2.319,0,0,1,.683.692,3.487,3.487,0,0,1,.3,1.238,6.319,6.319,0,0,0,.822,2.276c.325.546.738,1.041,1.032,1.609a2.482,2.482,0,0,1,.279,1.842c-.1.319-.3.607-.373.938a3.506,3.506,0,0,0,.671,2.185,4.112,4.112,0,0,1,.455,2.073,2.613,2.613,0,0,1-.935,1.863,3.338,3.338,0,0,1-1.97.607,6.981,6.981,0,0,1-2.51-.385,1.916,1.916,0,0,0-.953-.164c-.452.091-.395.37-.589.7C874.329,543.389,873.322,543.477,873.116,542.894Z" transform="translate(-613.366 -395.214)"/><path class="k" d="M880.191,721.054l5.02-3.927,7.891-7.778s-1.062-.052-2.6-.118a1.709,1.709,0,0,0-.552,1.062c-.036.95-2.125.067-3.223.607s-6.413,7.366-7.347,7.323-1.672-.473-2.061.188l-.027.042a1.117,1.117,0,0,1-.607.352Z" transform="translate(-625.24 -523.152)"/><path class="p" d="M854.93,714.614l2.522,8.049.395,1.263,1.214-.328,2.646-.728,11.787-3.238a10.2,10.2,0,0,0,4.249-1.132,12.88,12.88,0,0,1,7.326-1.6c1.557.146,3.29-.525,4.728-3.184,0,0,3.266-9.645-4.98-12.407s-8.637,1.469-8.637,1.469l-.112.07c-.3.2-1.214.844-1.25,1.624-.036.953-2.124.067-3.223.607s-6.434,7.369-7.369,7.32-1.672-.473-2.061.188l-.027.042c-.288.4-1.156.489-1.727.507h-.54l-.073.021-.607.179Z" transform="translate(-610.091 -516.986)"/><path class="k" d="M857.08,684.148l1.214.194.507-5.02s-.555-.082-1.25-.243A25.833,25.833,0,0,1,857.08,684.148Z" transform="translate(-611.588 -502.153)"/><path class="k" d="M889.3,618.255s3.618-1.05,2.731,9.22a28.625,28.625,0,0,1-7.587,16.762s-7.7,3.384-11.162,2.841a60.172,60.172,0,0,0-5.988-.662,8.8,8.8,0,0,0-3.5-.935c-1.942-.076-6.027-1.284-6.106-1.672s1.014-6.106.546-6.534c0,0,5.445.225,5.988.607s1.323.112,1.906,0a6.629,6.629,0,0,1,5.912-.3,3.585,3.585,0,0,0,1.672-.194,1.676,1.676,0,0,1,1.214-.079,3.488,3.488,0,0,0,.847-.428c.115-.155,1.05,0,1.05,0a.413.413,0,0,0,.583-.273,2.531,2.531,0,0,1,.543-.856s1.05-5.912,3.035-8.127a1.272,1.272,0,0,0,.428-1.129C881.259,625.87,884.637,617.011,889.3,618.255Z" transform="translate(-612.011 -459.704)"/><path class="e" d="M888.967,615.655s3.618-1.05,2.731,9.22a28.625,28.625,0,0,1-7.587,16.762s-7.7,3.384-11.162,2.841-6-.662-6-.662a8.8,8.8,0,0,0-3.5-.935c-1.945-.076-6.027-1.284-6.106-1.672s1.011-6.106.543-6.534c0,0,5.445.225,5.991.607s1.323.109,1.906,0a6.629,6.629,0,0,1,5.912-.3,3.585,3.585,0,0,0,1.672-.194,1.676,1.676,0,0,1,1.214-.079,3.429,3.429,0,0,0,.844-.428c.115-.155,1.05,0,1.05,0a.413.413,0,0,0,.583-.273,2.606,2.606,0,0,1,.546-.856s1.05-5.912,3.035-8.127a1.264,1.264,0,0,0,.428-1.129C880.906,623.27,884.3,614.411,888.967,615.655Z" transform="translate(-611.767 -457.893)"/><path class="k" d="M869,742.662l5.135,6.215c.021-.018.033-.03.033-.036.039-.115.543-1.438.428-1.517a7.212,7.212,0,0,0-2.8-2.841,5.309,5.309,0,0,1-2.2-2Z" transform="translate(-619.891 -546.311)"/><path class="k" d="M868.975,762.769l.561.325s1.3-1.047,2.6-2.1,2.552-2.082,2.574-2.124c.036-.115.543-1.439.425-1.517-.061-.039-.328-.58-.816-1.214-3.484-.977-1.266,1.442-.971,1.551a3.547,3.547,0,0,0-4.473,3.642A5.458,5.458,0,0,0,868.975,762.769Z" transform="translate(-619.796 -555.663)"/><path class="e" d="M874.118,764.75l.74.428,7.505.194a15.189,15.189,0,0,0,2.659,1.278,2.328,2.328,0,0,0,.376.085,17.733,17.733,0,0,0,2.091.039c.577,0,1.02-.039,1.02-.039s-.355-9.469-.607-10.464c-.128-.476-.759-.37-1.378-.134a9.115,9.115,0,0,0-1.344.68,23.171,23.171,0,0,0-3.7.586c-.507.282-1.942-.158-2.838,0s-2.489-1.053-2.489-1.053c-4.358-1.439-1.906,1.244-1.6,1.36a3.544,3.544,0,0,0-4.47,3.642C869.869,765.964,874.118,764.75,874.118,764.75Z" transform="translate(-620.645 -555.677)"/><path class="v" d="M919.132,761.085c.082,1.961,1.608,4.395,2.519,5.681.577,0,1.02-.039,1.02-.039s-.355-9.469-.607-10.464c-.127-.477-.759-.37-1.378-.134A10.781,10.781,0,0,0,919.132,761.085Z" transform="translate(-654.805 -555.678)"/><path class="k" d="M919.132,761.085c.082,1.961,1.608,4.395,2.519,5.681.577,0,1.02-.039,1.02-.039s-.355-9.469-.607-10.464c-.127-.477-.759-.37-1.378-.134A10.781,10.781,0,0,0,919.132,761.085Z" transform="translate(-654.805 -555.678)"/><path class="q" d="M914.62,761.346c.516,1.891.51,4.012,1.335,5.3a2.326,2.326,0,0,0,.376.085,17.748,17.748,0,0,0,2.091.04c.577,0,1.02-.039,1.02-.039s-.355-9.469-.607-10.464c-.128-.476-.759-.37-1.378-.134a9.111,9.111,0,0,0-1.344.68S913.959,758.924,914.62,761.346Z" transform="translate(-651.578 -555.678)"/><path class="k" d="M829.58,710.55a15.552,15.552,0,0,1,6.889,5.511Z" transform="translate(-592.434 -524.072)"/><g class="b" transform="translate(246.259 137.137)"><path d="M929.062,556.77a.124.124,0,0,1-.021.085,3.286,3.286,0,0,1-.13.325A2.463,2.463,0,0,1,929.062,556.77Z" transform="translate(-907.877 -554.099)"/><path d="M859.7,548.756a3.645,3.645,0,0,1,.3-.786c-.021.067-.039.134-.058.2a5.592,5.592,0,0,0,.173,2.577,1.8,1.8,0,0,0,.628,1.153c.58.37,1.475.049,1.948.549.3.3.3.883.707,1.077a.783.783,0,0,0,.464.055c1.032-.146,1.633-1.314,2.625-1.636a2.631,2.631,0,0,1,1.739.152,1.266,1.266,0,0,1,.577.37c.331.428.1,1.062.252,1.581.215.722,1.077,1.008,1.821,1.1a3.21,3.21,0,0,1,2.088.71,1.9,1.9,0,0,1,.37,1.517,1.147,1.147,0,0,0,0,.555c.206.583,1.214.5,1.478.036.194-.334.134-.607.589-.707a1.955,1.955,0,0,1,.953.167,7.058,7.058,0,0,0,2.513.376,3.338,3.338,0,0,0,1.97-.607,2.287,2.287,0,0,0,.607-.734,2.491,2.491,0,0,1-.841,1.317,3.337,3.337,0,0,1-1.969.607,6.98,6.98,0,0,1-2.519-.4,1.919,1.919,0,0,0-.953-.164c-.452.091-.394.37-.589.7-.264.461-1.271.549-1.478-.033a1.212,1.212,0,0,1,0-.558,1.9,1.9,0,0,0-.37-1.517,3.236,3.236,0,0,0-2.088-.71c-.747-.1-1.609-.382-1.821-1.1-.155-.519.079-1.153-.255-1.581a1.273,1.273,0,0,0-.577-.37,2.631,2.631,0,0,0-1.739-.152c-.992.322-1.593,1.49-2.625,1.636a.784.784,0,0,1-.464-.055c-.391-.194-.407-.759-.707-1.077-.474-.5-1.369-.176-1.948-.549a1.8,1.8,0,0,1-.628-1.15A5.443,5.443,0,0,1,859.7,548.756Z" transform="translate(-859.607 -547.97)"/></g><path class="k" d="M924.228,648.837c-.713.962-1.517,1.851-2.158,2.868a5.4,5.4,0,0,0-.944,3.4,8.938,8.938,0,0,0,1.363-2.428,35.669,35.669,0,0,1,2.616-3.945c.167-.249,1.241-1.69.7-1.76C925.354,646.916,924.471,648.509,924.228,648.837Z" transform="translate(-656.182 -479.785)"/></g></svg>